<svg width="128" height="128" viewBox="0 0 128 128" fill="none" xmlns="http://www.w3.org/2000/svg">
<g clip-path="url(#clip0_707_508)">
<path d="M24.0241 105.396C20.1015 109.408 13.6463 109.408 9.72365 105.396L7.83528 103.465C4.03561 99.5784 4.0356 93.3689 7.83526 89.4827L25.915 70.9911C29.7146 67.1049 29.7146 60.8954 25.915 57.0091L7.83527 38.5175C4.0356 34.6313 4.03561 28.4218 7.83527 24.5355L9.72364 22.6042C13.6463 18.5921 20.1015 18.5921 24.0241 22.6042L48.6237 47.7642C48.6244 47.7648 48.6255 47.7648 48.6261 47.7642V47.7642C48.6268 47.7635 48.6279 47.7635 48.6285 47.7642L73.2273 72.9233C77.1499 76.9354 83.6051 76.9354 87.5278 72.9233L89.417 70.9911C93.2166 67.1049 93.2166 60.8954 89.417 57.0091L84.9132 52.4027C82.4249 49.8578 78.3302 49.8578 75.8419 52.4027V52.4027C73.3536 54.9477 69.2589 54.9477 66.7707 52.4027L62.266 47.7955C58.4664 43.9092 58.4664 37.6997 62.266 33.8135L73.2257 22.6042C77.1483 18.5922 83.6035 18.5922 87.5262 22.6042L121.165 57.0091C124.964 60.8953 124.964 67.1049 121.165 70.9911L87.5262 105.396C83.6035 109.408 77.1483 109.408 73.2257 105.396L55.7752 87.548C51.8525 83.5359 45.3973 83.5359 41.4747 87.548L24.0241 105.396Z" fill="white"/>
</g>
<defs>
<clipPath id="clip0_707_508">
<rect width="127" height="94" fill="white" transform="translate(1 17)"/>
</clipPath>
</defs>
</svg>
