<svg width="595" height="110" viewBox="0 0 595 110" fill="none" xmlns="http://www.w3.org/2000/svg">
<g clip-path="url(#clip0_688_512)">
<path d="M25.8665 104.787C21.9508 108.755 15.5466 108.755 11.6309 104.787L6.93148 100.025C3.08855 96.1308 3.08854 89.8712 6.93147 85.977L30.5688 62.024C34.4117 58.1298 34.4117 51.8702 30.5688 47.976L6.93147 24.023C3.08855 20.1288 3.08854 13.8692 6.93148 9.97499L11.6309 5.21283C15.5466 1.24486 21.9508 1.24487 25.8665 5.21285L56.2485 36.0005C56.2493 36.0013 56.2505 36.0013 56.2513 36.0005V36.0005C56.2521 35.9997 56.2534 35.9997 56.2542 36.0005L86.6352 66.7872C90.5509 70.7552 96.9551 70.7551 100.871 66.7872L105.571 62.024C109.414 58.1298 109.414 51.8702 105.571 47.976L99.11 41.4286C96.163 38.4422 91.343 38.4422 88.396 41.4286V41.4286C85.4489 44.415 80.6289 44.415 77.6819 41.4286L71.2198 34.8802C67.3768 30.986 67.3768 24.7264 71.2198 20.8322L86.6333 5.21285C90.549 1.24488 96.9532 1.24487 100.869 5.21285L143.069 47.976C146.911 51.8702 146.911 58.1298 143.069 62.024L100.869 104.787C96.9532 108.755 90.549 108.755 86.6333 104.787L63.3677 81.2109C59.452 77.2429 53.0478 77.2429 49.1321 81.2109L25.8665 104.787Z" fill="white"/>
</g>
<path d="M208.219 77L200.75 62.3438L193.312 77H183L196.75 55.0312L183 32.625H193.312L200.75 47.5312L208.219 32.625H218.531L204.75 55.0312L218.531 77H208.219ZM223.969 77V32.625H232.219V69.4062H254.406V77H223.969ZM311.719 77.625C309.198 77.625 306.75 77.4167 304.375 77C302 76.5625 299.875 75.9583 298 75.1875L299.125 66.75C303.833 68.75 308.198 69.75 312.219 69.75C314.448 69.75 316.156 69.3542 317.344 68.5625C318.531 67.7708 319.125 66.6354 319.125 65.1562C319.125 63.2188 317.906 61.6771 315.469 60.5312L309.094 57.4375C305.948 55.8958 303.51 53.9896 301.781 51.7188C300.052 49.4479 299.188 46.9375 299.188 44.1875C299.188 40.3125 300.469 37.3125 303.031 35.1875C305.594 33.0625 309.219 32 313.906 32C319.51 32 324.271 33.8646 328.188 37.5938L322.5 44.125C319.521 41.2708 316.667 39.8438 313.938 39.8438C312.104 39.8438 310.677 40.2396 309.656 41.0312C308.635 41.8021 308.125 42.9271 308.125 44.4062C308.125 46.3854 309.51 48.1042 312.281 49.5625L318.281 52.6562C321.406 54.2812 323.812 56.1771 325.5 58.3438C327.208 60.5104 328.062 62.8333 328.062 65.3125C328.062 69.25 326.646 72.2917 323.812 74.4375C320.979 76.5625 316.948 77.625 311.719 77.625ZM350.75 77.625C345.979 77.625 342.281 76.125 339.656 73.125C337.031 70.125 335.719 65.8958 335.719 60.4375C335.719 54.9583 337.031 50.7292 339.656 47.75C342.281 44.75 345.979 43.25 350.75 43.25C355.521 43.25 359.219 44.75 361.844 47.75C364.469 50.7292 365.781 54.9583 365.781 60.4375C365.781 65.8958 364.469 70.125 361.844 73.125C359.219 76.125 355.521 77.625 350.75 77.625ZM350.75 69.5938C352.792 69.5938 354.365 68.8021 355.469 67.2188C356.573 65.6146 357.125 63.3542 357.125 60.4375C357.125 57.5 356.573 55.2396 355.469 53.6562C354.365 52.0729 352.792 51.2812 350.75 51.2812C348.729 51.2812 347.156 52.0729 346.031 53.6562C344.927 55.2396 344.375 57.5 344.375 60.4375C344.375 63.3542 344.927 65.6146 346.031 67.2188C347.156 68.8021 348.729 69.5938 350.75 69.5938ZM381.156 77V57.7188H371.094V50.4688H381.156V46.6875C381.156 35.2292 386.688 29.5 397.75 29.5C400.312 29.5 402.781 29.7083 405.156 30.125L404.344 37.9688C402.948 37.8021 401.708 37.6875 400.625 37.625C399.562 37.5625 398.542 37.5312 397.562 37.5312C392.25 37.5312 389.594 40.4792 389.594 46.375V50.4688H402.781V57.7188H389.594V77H381.156ZM432.781 77.625C427.073 77.625 422.948 76.4792 420.406 74.1875C417.865 71.8958 416.594 68.2292 416.594 63.1875V51.6562H408.656V43.875H416.594V33.875H425.031V43.875H439.719V51.6562H425.031V62.375C425.031 64.8958 425.677 66.7292 426.969 67.875C428.281 69.0208 430.427 69.5938 433.406 69.5938C434.365 69.5938 435.385 69.5417 436.469 69.4375C437.573 69.3125 438.823 69.1562 440.219 68.9688L440.969 76.875C439.594 77.125 438.25 77.3125 436.938 77.4375C435.646 77.5625 434.26 77.625 432.781 77.625ZM466.469 77L463.125 52.0312H462.75L459.406 77H448.344L446.156 43.875H454.375L455.562 69.125H456.125L459.906 43.875H465.969L469.75 69.125H470.312L472.344 43.875H480.344L477.219 77H466.469ZM506.844 77.3125L506.312 70H505.562C505.25 72.5417 504.229 74.4479 502.5 75.7188C500.792 76.9896 498.5 77.625 495.625 77.625C492.104 77.625 489.365 76.7604 487.406 75.0312C485.448 73.3021 484.469 70.8438 484.469 67.6562C484.469 63.9479 485.75 61.1042 488.312 59.125C490.875 57.1458 494.51 56.1562 499.219 56.1562C500.594 56.1562 501.812 56.2083 502.875 56.3125C503.958 56.4167 505 56.5833 506 56.8125V56.7188C506 54.9479 505.24 53.6562 503.719 52.8438C502.219 52.0104 499.979 51.5521 497 51.4688L488.531 51.25L489.156 43.5625L496.375 43.6562C502.375 43.7396 506.833 44.9271 509.75 47.2188C512.667 49.4896 514.125 52.8125 514.125 57.1875V69.4375L518.719 70.125V77L506.844 77.3125ZM506 63.7812C504.792 63.5312 503.698 63.3854 502.719 63.3438C501.74 63.3021 500.708 63.2812 499.625 63.2812C495.25 63.2812 493.062 64.5312 493.062 67.0312C493.062 69.3438 494.615 70.5 497.719 70.5C499.51 70.5 501.01 70.1771 502.219 69.5312C503.448 68.8646 504.375 68.0208 505 67C505.625 65.9583 505.958 64.8854 506 63.7812ZM536.906 62.75V69.75H544.656V77H521.469V69.75H528.469V51.125H522.719V43.875H535.656L536.625 51.3438H537.812C538.146 45.9479 540.969 43.25 546.281 43.25C549.427 43.25 551.833 44.4062 553.5 46.7188C555.188 49.0312 556.031 52.3646 556.031 56.7188H547.594C547.594 54.7604 547.229 53.3542 546.5 52.5C545.792 51.6458 544.646 51.2188 543.062 51.2188C541 51.2188 539.458 52.2188 538.438 54.2188C537.417 56.2188 536.906 59.0625 536.906 62.75ZM578.375 77.625C572.646 77.625 568.219 76.1458 565.094 73.1875C561.969 70.2083 560.406 65.9375 560.406 60.375C560.406 54.9583 561.729 50.75 564.375 47.75C567.042 44.75 570.792 43.25 575.625 43.25C580.354 43.25 584.01 44.6354 586.594 47.4062C589.177 50.1771 590.469 54.2083 590.469 59.5C590.469 61 590.406 62.4271 590.281 63.7812H569.25C570.542 67.6771 573.833 69.625 579.125 69.625C580.625 69.625 582.104 69.5521 583.562 69.4062C585.021 69.2396 586.51 69.0208 588.031 68.75L588.844 76.75C586.719 77.125 584.781 77.3646 583.031 77.4688C581.281 77.5729 579.729 77.625 578.375 77.625ZM568.844 57.9062H582.156C582.156 55.6771 581.583 53.9688 580.438 52.7812C579.312 51.5938 577.729 51 575.688 51C573.771 51 572.219 51.6042 571.031 52.8125C569.865 54 569.135 55.6979 568.844 57.9062Z" fill="white"/>
<defs>
<clipPath id="clip0_688_512">
<rect width="150" height="110" fill="white"/>
</clipPath>
</defs>
</svg>
