<svg width="99" height="72" viewBox="0 0 99 72" fill="none" xmlns="http://www.w3.org/2000/svg">
<mask id="mask0_1_7" style="mask-type:luminance" maskUnits="userSpaceOnUse" x="0" y="0" width="99" height="72">
<path d="M98.0672 0H0V72H98.0672V0Z" fill="white"/>
</mask>
<g mask="url(#mask0_1_7)">
<path d="M16.911 68.5879C14.351 71.1851 10.1641 71.1851 7.60406 68.5879L4.53167 65.4709C2.01923 62.922 2.01923 58.8248 4.53166 56.2758L19.9853 40.5975C22.4977 38.0486 22.4977 33.9514 19.9853 31.4025L4.53166 15.7241C2.01923 13.1752 2.01923 9.07802 4.53167 6.52908L7.60406 3.41203C10.1641 0.814817 14.351 0.814824 16.911 3.41205L36.7742 23.564H36.7761H36.778L56.6405 43.7153C59.2005 46.3124 63.3875 46.3124 65.9476 43.7153L69.0204 40.5975C71.5328 38.0486 71.5328 33.9514 69.0204 31.4025L64.7963 27.1169C62.8696 25.1622 59.7184 25.1622 57.7917 27.1169C55.8649 29.0716 52.7137 29.0716 50.787 27.1169L46.5622 22.8307C44.0497 20.2817 44.0497 16.1846 46.5622 13.6356L56.6392 3.41205C59.1993 0.814831 63.3862 0.814824 65.9463 3.41205L93.5359 31.4025C96.0477 33.9514 96.0477 38.0486 93.5359 40.5975L65.9463 68.5879C63.3862 71.1851 59.1993 71.1851 56.6392 68.5879L41.4286 53.1562C38.8686 50.559 34.6817 50.559 32.1217 53.1562L16.911 68.5879Z" fill="white"/>
</g>
</svg>
