<svg width="99" height="72" viewBox="0 0 99 72" fill="none" xmlns="http://www.w3.org/2000/svg">
<mask id="mask0_745_508" style="mask-type:luminance" maskUnits="userSpaceOnUse" x="0" y="0" width="99" height="72">
<path d="M98.0672 0H0V72H98.0672V0Z" fill="white"/>
</mask>
<g mask="url(#mask0_745_508)">
<path d="M16.9111 68.5881C14.3511 71.1853 10.1642 71.1853 7.60418 68.5881L4.53179 65.4711C2.01935 62.9222 2.01935 58.825 4.53178 56.276L19.9854 40.5977C22.4978 38.0488 22.4978 33.9516 19.9854 31.4027L4.53178 15.7243C2.01935 13.1754 2.01935 9.07825 4.53179 6.52931L7.60418 3.41226C10.1642 0.815047 14.3511 0.815054 16.9111 3.41228L36.7743 23.5642H36.7762H36.7781L56.6406 43.7155C59.2006 46.3126 63.3876 46.3126 65.9477 43.7155L69.0205 40.5977C71.5329 38.0488 71.5329 33.9516 69.0205 31.4027L64.7964 27.1171C62.8697 25.1624 59.7185 25.1624 57.7918 27.1171C55.865 29.0718 52.7138 29.0718 50.7871 27.1171L46.5623 22.8309C44.0498 20.2819 44.0498 16.1848 46.5623 13.6358L56.6393 3.41228C59.1994 0.815061 63.3863 0.815054 65.9464 3.41228L93.536 31.4027C96.0478 33.9516 96.0478 38.0488 93.536 40.5977L65.9464 68.5881C63.3863 71.1853 59.1994 71.1853 56.6393 68.5881L41.4287 53.1564C38.8687 50.5592 34.6818 50.5592 32.1218 53.1564L16.9111 68.5881Z" fill="#2B7FFF"/>
</g>
</svg>
