<svg width="5700" height="700" viewBox="0 0 5700 700" fill="none" xmlns="http://www.w3.org/2000/svg">
<rect x="3500" y="200" width="100" height="100" transform="rotate(90 3500 200)" fill="white"/>
<rect x="3500" y="300" width="100" height="100" transform="rotate(90 3500 300)" fill="white"/>
<rect x="3500" y="400" width="100" height="100" transform="rotate(90 3500 400)" fill="white"/>
<rect x="3500" y="500" width="100" height="100" transform="rotate(90 3500 500)" fill="white"/>
<rect x="3600" y="300" width="100" height="100" transform="rotate(90 3600 300)" fill="white"/>
<rect x="3700" y="200" width="100" height="100" transform="rotate(90 3700 200)" fill="white"/>
<rect x="3600" y="500" width="100" height="100" transform="rotate(90 3600 500)" fill="white"/>
<rect x="3700" y="500" width="100" height="100" transform="rotate(90 3700 500)" fill="white"/>
<rect x="3700" y="400" width="100" height="100" transform="rotate(90 3700 400)" fill="white"/>
<rect x="3700" y="100" width="100" height="100" transform="rotate(90 3700 100)" fill="white"/>
<rect x="3600" y="100" width="100" height="100" transform="rotate(90 3600 100)" fill="white"/>
<rect x="3500" y="100" width="100" height="100" transform="rotate(90 3500 100)" fill="white"/>
<rect x="3900" y="200" width="100" height="100" transform="rotate(90 3900 200)" fill="white"/>
<rect x="3900" y="300" width="100" height="100" transform="rotate(90 3900 300)" fill="white"/>
<rect x="3900" y="400" width="100" height="100" transform="rotate(90 3900 400)" fill="white"/>
<rect x="3900" y="500" width="100" height="100" transform="rotate(90 3900 500)" fill="white"/>
<rect x="4000" y="300" width="100" height="100" transform="rotate(90 4000 300)" fill="white"/>
<rect x="4100" y="300" width="100" height="100" transform="rotate(90 4100 300)" fill="white"/>
<rect x="4100" y="200" width="100" height="100" transform="rotate(90 4100 200)" fill="white"/>
<rect x="4100" y="500" width="100" height="100" transform="rotate(90 4100 500)" fill="white"/>
<rect x="4100" y="400" width="100" height="100" transform="rotate(90 4100 400)" fill="white"/>
<rect x="4100" y="100" width="100" height="100" transform="rotate(90 4100 100)" fill="white"/>
<rect x="4000" y="100" width="100" height="100" transform="rotate(90 4000 100)" fill="white"/>
<rect x="3900" y="100" width="100" height="100" transform="rotate(90 3900 100)" fill="white"/>
<rect x="4400" y="200" width="100" height="100" transform="rotate(90 4400 200)" fill="white"/>
<rect x="4400" y="400" width="100" height="100" transform="rotate(90 4400 400)" fill="white"/>
<rect x="4400" y="500" width="100" height="100" transform="rotate(90 4400 500)" fill="white"/>
<rect x="4400" y="300" width="100" height="100" transform="rotate(90 4400 300)" fill="white"/>
<rect x="4500" y="100" width="100" height="100" transform="rotate(90 4500 100)" fill="white"/>
<rect x="4400" y="100" width="100" height="100" transform="rotate(90 4400 100)" fill="white"/>
<rect x="4300" y="100" width="100" height="100" transform="rotate(90 4300 100)" fill="white"/>
<rect x="4800" y="200" width="100" height="100" transform="rotate(90 4800 200)" fill="white"/>
<rect x="4800" y="400" width="100" height="100" transform="rotate(90 4800 400)" fill="white"/>
<rect x="4800" y="500" width="100" height="100" transform="rotate(90 4800 500)" fill="white"/>
<rect x="4800" y="300" width="100" height="100" transform="rotate(90 4800 300)" fill="white"/>
<rect x="4900" y="100" width="100" height="100" transform="rotate(90 4900 100)" fill="white"/>
<rect x="4800" y="100" width="100" height="100" transform="rotate(90 4800 100)" fill="white"/>
<rect x="4700" y="100" width="100" height="100" transform="rotate(90 4700 100)" fill="white"/>
<rect x="5100" y="300" width="100" height="100" transform="rotate(90 5100 300)" fill="white"/>
<rect x="5100" y="200" width="100" height="100" transform="rotate(90 5100 200)" fill="white"/>
<rect x="5100" y="100" width="100" height="100" transform="rotate(90 5100 100)" fill="white"/>
<rect x="5300" y="500" width="100" height="100" transform="rotate(90 5300 500)" fill="white"/>
<rect x="5100" y="500" width="100" height="100" transform="rotate(90 5100 500)" fill="white"/>
<rect x="5100" y="400" width="100" height="100" transform="rotate(90 5100 400)" fill="white"/>
<rect x="5200" y="500" width="100" height="100" transform="rotate(90 5200 500)" fill="white"/>
<rect x="5600" y="300" width="100" height="100" transform="rotate(90 5600 300)" fill="white"/>
<rect x="5500" y="300" width="100" height="100" transform="rotate(90 5500 300)" fill="white"/>
<rect x="5600" y="100" width="100" height="100" transform="rotate(90 5600 100)" fill="white"/>
<rect x="5500" y="100" width="100" height="100" transform="rotate(90 5500 100)" fill="white"/>
<rect x="5700" y="100" width="100" height="100" transform="rotate(90 5700 100)" fill="white"/>
<rect x="5700" y="500" width="100" height="100" transform="rotate(90 5700 500)" fill="white"/>
<rect x="5500" y="500" width="100" height="100" transform="rotate(90 5500 500)" fill="white"/>
<rect x="5500" y="400" width="100" height="100" transform="rotate(90 5500 400)" fill="white"/>
<rect x="5600" y="500" width="100" height="100" transform="rotate(90 5600 500)" fill="white"/>
<rect x="5500" y="200" width="100" height="100" transform="rotate(90 5500 200)" fill="white"/>
<rect width="100" height="100" fill="white"/>
<rect x="100" y="100" width="100" height="100" fill="white"/>
<rect x="200" y="200" width="100" height="100" fill="white"/>
<rect x="100" y="200" width="100" height="100" fill="white"/>
<rect y="100" width="100" height="100" fill="white"/>
<rect x="100" width="100" height="100" fill="white"/>
<rect x="200" y="100" width="100" height="100" fill="white"/>
<rect x="300" y="200" width="100" height="100" fill="white"/>
<rect x="200" y="300" width="100" height="100" fill="white"/>
<rect x="300" y="300" width="100" height="100" fill="white"/>
<rect x="400" y="300" width="100" height="100" transform="rotate(90 400 300)" fill="white"/>
<rect x="300" y="400" width="100" height="100" transform="rotate(90 300 400)" fill="white"/>
<rect x="200" y="500" width="100" height="100" transform="rotate(90 200 500)" fill="white"/>
<rect x="200" y="400" width="100" height="100" transform="rotate(90 200 400)" fill="white"/>
<rect x="300" y="300" width="100" height="100" transform="rotate(90 300 300)" fill="white"/>
<rect x="400" y="400" width="100" height="100" transform="rotate(90 400 400)" fill="white"/>
<rect x="300" y="500" width="100" height="100" transform="rotate(90 300 500)" fill="white"/>
<rect x="200" y="600" width="100" height="100" transform="rotate(90 200 600)" fill="white"/>
<rect x="100" y="500" width="100" height="100" transform="rotate(90 100 500)" fill="white"/>
<rect x="100" y="600" width="100" height="100" transform="rotate(90 100 600)" fill="white"/>
<rect width="100" height="100" transform="matrix(-1 0 0 1 700 0)" fill="white"/>
<rect width="100" height="100" transform="matrix(-1 0 0 1 600 100)" fill="white"/>
<rect width="100" height="100" transform="matrix(-1 0 0 1 700 100)" fill="white"/>
<rect width="100" height="100" transform="matrix(-1 0 0 1 400 200)" fill="white"/>
<rect width="100" height="100" transform="matrix(-1 0 0 1 500 300)" fill="white"/>
<rect width="100" height="100" transform="matrix(-1 0 0 1 400 300)" fill="white"/>
<rect width="100" height="100" transform="matrix(4.37114e-08 1 1 -4.37114e-08 300 300)" fill="white"/>
<rect width="100" height="100" transform="matrix(4.37114e-08 1 1 -4.37114e-08 400 400)" fill="white"/>
<rect width="100" height="100" transform="matrix(4.37114e-08 1 1 -4.37114e-08 500 500)" fill="white"/>
<rect width="100" height="100" transform="matrix(4.37114e-08 1 1 -4.37114e-08 500 400)" fill="white"/>
<rect width="100" height="100" transform="matrix(4.37114e-08 1 1 -4.37114e-08 400 300)" fill="white"/>
<rect width="100" height="100" transform="matrix(4.37114e-08 1 1 -4.37114e-08 300 400)" fill="white"/>
<rect width="100" height="100" transform="matrix(4.37114e-08 1 1 -4.37114e-08 400 500)" fill="white"/>
<rect width="100" height="100" transform="matrix(4.37114e-08 1 1 -4.37114e-08 500 600)" fill="white"/>
<rect width="100" height="100" transform="matrix(4.37114e-08 1 1 -4.37114e-08 600 500)" fill="white"/>
<rect width="100" height="100" transform="matrix(4.37114e-08 1 1 -4.37114e-08 600 600)" fill="white"/>
<rect x="600" width="100" height="100" fill="white"/>
<rect x="600" width="100" height="100" fill="white"/>
<rect x="700" y="100" width="100" height="100" fill="white"/>
<rect x="800" y="200" width="100" height="100" fill="white"/>
<rect x="700" y="200" width="100" height="100" fill="white"/>
<rect x="600" y="100" width="100" height="100" fill="white"/>
<rect x="700" width="100" height="100" fill="white"/>
<rect x="800" y="100" width="100" height="100" fill="white"/>
<rect x="900" y="200" width="100" height="100" fill="white"/>
<rect x="800" y="300" width="100" height="100" fill="white"/>
<rect x="900" y="300" width="100" height="100" fill="white"/>
<rect x="1000" y="300" width="100" height="100" transform="rotate(90 1000 300)" fill="white"/>
<rect x="1100" y="300" width="100" height="100" transform="rotate(90 1100 300)" fill="white"/>
<rect x="1400" y="200" width="100" height="100" transform="rotate(90 1400 200)" fill="white"/>
<rect x="1400" y="300" width="100" height="100" transform="rotate(90 1400 300)" fill="white"/>
<rect x="1400" y="400" width="100" height="100" transform="rotate(90 1400 400)" fill="white"/>
<rect x="1400" y="500" width="100" height="100" transform="rotate(90 1400 500)" fill="white"/>
<rect x="1500" y="300" width="100" height="100" transform="rotate(90 1500 300)" fill="white"/>
<rect x="1600" y="300" width="100" height="100" transform="rotate(90 1600 300)" fill="white"/>
<rect x="1600" y="200" width="100" height="100" transform="rotate(90 1600 200)" fill="white"/>
<rect x="1600" y="100" width="100" height="100" transform="rotate(90 1600 100)" fill="white"/>
<rect x="1500" y="100" width="100" height="100" transform="rotate(90 1500 100)" fill="white"/>
<rect x="1400" y="100" width="100" height="100" transform="rotate(90 1400 100)" fill="white"/>
<rect x="1900" y="300" width="100" height="100" transform="rotate(90 1900 300)" fill="white"/>
<rect x="1900" y="200" width="100" height="100" transform="rotate(90 1900 200)" fill="white"/>
<rect x="1800" y="100" width="100" height="100" transform="rotate(90 1800 100)" fill="white"/>
<rect x="2000" y="100" width="100" height="100" transform="rotate(90 2000 100)" fill="white"/>
<rect x="2000" y="500" width="100" height="100" transform="rotate(90 2000 500)" fill="white"/>
<rect x="1800" y="500" width="100" height="100" transform="rotate(90 1800 500)" fill="white"/>
<rect x="1900" y="400" width="100" height="100" transform="rotate(90 1900 400)" fill="white"/>
<rect x="1900" y="500" width="100" height="100" transform="rotate(90 1900 500)" fill="white"/>
<rect x="1900" y="100" width="100" height="100" transform="rotate(90 1900 100)" fill="white"/>
<rect x="3000" y="300" width="100" height="100" transform="rotate(90 3000 300)" fill="white"/>
<rect x="3000" y="200" width="100" height="100" transform="rotate(90 3000 200)" fill="white"/>
<rect x="3000" y="100" width="100" height="100" transform="rotate(90 3000 100)" fill="white"/>
<rect x="3200" y="500" width="100" height="100" transform="rotate(90 3200 500)" fill="white"/>
<rect x="3000" y="500" width="100" height="100" transform="rotate(90 3000 500)" fill="white"/>
<rect x="3000" y="400" width="100" height="100" transform="rotate(90 3000 400)" fill="white"/>
<rect x="3100" y="500" width="100" height="100" transform="rotate(90 3100 500)" fill="white"/>
<rect x="2300" y="300" width="100" height="100" transform="rotate(90 2300 300)" fill="white"/>
<rect x="2400" y="200" width="100" height="100" transform="rotate(90 2400 200)" fill="white"/>
<rect x="2200" y="100" width="100" height="100" transform="rotate(90 2200 100)" fill="white"/>
<rect x="2400" y="100" width="100" height="100" transform="rotate(90 2400 100)" fill="white"/>
<rect x="2400" y="500" width="100" height="100" transform="rotate(90 2400 500)" fill="white"/>
<rect x="2200" y="500" width="100" height="100" transform="rotate(90 2200 500)" fill="white"/>
<rect x="2200" y="400" width="100" height="100" transform="rotate(90 2200 400)" fill="white"/>
<rect x="2400" y="400" width="100" height="100" transform="rotate(90 2400 400)" fill="white"/>
<rect x="2200" y="200" width="100" height="100" transform="rotate(90 2200 200)" fill="white"/>
<rect x="2700" y="300" width="100" height="100" transform="rotate(90 2700 300)" fill="white"/>
<rect x="2600" y="300" width="100" height="100" transform="rotate(90 2600 300)" fill="white"/>
<rect x="2700" y="100" width="100" height="100" transform="rotate(90 2700 100)" fill="white"/>
<rect x="2600" y="100" width="100" height="100" transform="rotate(90 2600 100)" fill="white"/>
<rect x="2800" y="100" width="100" height="100" transform="rotate(90 2800 100)" fill="white"/>
<rect x="2800" y="500" width="100" height="100" transform="rotate(90 2800 500)" fill="white"/>
<rect x="2600" y="500" width="100" height="100" transform="rotate(90 2600 500)" fill="white"/>
<rect x="2600" y="400" width="100" height="100" transform="rotate(90 2600 400)" fill="white"/>
<rect x="2700" y="500" width="100" height="100" transform="rotate(90 2700 500)" fill="white"/>
<rect x="2600" y="200" width="100" height="100" transform="rotate(90 2600 200)" fill="white"/>
<rect x="900" y="400" width="100" height="100" transform="rotate(90 900 400)" fill="white"/>
<rect x="800" y="500" width="100" height="100" transform="rotate(90 800 500)" fill="white"/>
<rect x="800" y="400" width="100" height="100" transform="rotate(90 800 400)" fill="white"/>
<rect x="900" y="300" width="100" height="100" transform="rotate(90 900 300)" fill="white"/>
<rect x="1000" y="400" width="100" height="100" transform="rotate(90 1000 400)" fill="white"/>
<rect x="900" y="500" width="100" height="100" transform="rotate(90 900 500)" fill="white"/>
<rect x="800" y="600" width="100" height="100" transform="rotate(90 800 600)" fill="white"/>
<rect x="700" y="500" width="100" height="100" transform="rotate(90 700 500)" fill="white"/>
<rect x="700" y="600" width="100" height="100" transform="rotate(90 700 600)" fill="white"/>
</svg>
