<svg width="274" height="74" viewBox="0 0 274 74" fill="none" xmlns="http://www.w3.org/2000/svg">
<path d="M35.9075 56.2118L74.9587 16.6255L77.3174 19.0177L79.678 21.4078L40.6269 60.9941L38.2662 58.6039L35.9075 56.2118Z" fill="url(#paint0_linear_311_51)"/>
<path d="M1.77832 55.6097L75.7613 16.0293L77.3154 19.0195L78.8734 22.0097L4.89242 61.59L3.33439 58.5998L1.77832 55.6097Z" fill="url(#paint1_linear_311_51)"/>
<path d="M52.3081 13.0258L41.514 59.3812L38.2681 58.6022L35.0222 57.8271L45.8143 11.4736L49.0602 12.2507L52.3081 13.0258Z" fill="url(#paint2_linear_311_51)"/>
<path d="M3.33443 61.9835C5.1777 61.9835 6.67082 60.4687 6.67082 58.6018C6.67082 56.7349 5.17574 55.2222 3.33443 55.2222C1.49311 55.2222 0 56.7349 0 58.6018C0 60.4707 1.49508 61.9835 3.33443 61.9835ZM38.2682 61.9835C40.1095 61.9835 41.6026 60.4687 41.6026 58.6018C41.6026 56.7349 40.1095 55.2222 38.2682 55.2222C36.4249 55.2222 34.9318 56.7349 34.9318 58.6018C34.9318 60.4707 36.4269 61.9835 38.2682 61.9835Z" fill="#FF4848"/>
<path d="M49.0622 15.6319C50.9035 15.6319 52.3966 14.1172 52.3966 12.2483C52.3966 10.3834 50.9035 8.86865 49.0622 8.86865C47.2189 8.86865 45.7258 10.3834 45.7258 12.2503C45.7258 14.1172 47.2209 15.6319 49.0622 15.6319Z" fill="#536DFE"/>
<path d="M0.977783 56.21L46.7155 9.84668L49.0762 12.2369L51.4329 14.629L5.69516 60.9942L3.3345 58.6021L0.977783 56.21Z" fill="url(#paint3_linear_311_51)"/>
<path d="M77.3194 22.3956C79.1626 22.3956 80.6557 20.8809 80.6557 19.014C80.6557 17.1471 79.1607 15.6343 77.3194 15.6343C75.478 15.6343 73.9849 17.1471 73.9849 19.014C73.9849 20.8828 75.478 22.3956 77.3194 22.3956Z" fill="#536DFE"/>
<path d="M108.069 30.0439L106.062 23.6052H96.7122L94.7057 30.0439H88.5247L97.7549 2.97705H105.301L114.409 30.042L108.069 30.0439ZM101.449 8.32787H101.249L98.1601 18.6046H104.579L101.449 8.32787ZM120.934 7.51344C119.73 7.51344 118.849 7.25574 118.287 6.73836C117.751 6.19541 117.484 5.51082 117.484 4.68459V3.83082C117.484 3.00459 117.751 2.3318 118.287 1.81443C118.847 1.27148 119.73 1 120.934 1C122.138 1 123.008 1.27148 123.543 1.81443C124.106 2.3318 124.387 3.00262 124.387 3.83082V4.68459C124.387 5.51082 124.106 6.19541 123.543 6.73836C123.008 7.25574 122.138 7.51344 120.934 7.51344ZM117.964 9.68525H123.905V30.0439H117.964V9.68525ZM129.449 30.0439V9.68525H135.39V13.1377H135.63C136.019 12.0561 136.7 11.103 137.597 10.3836C138.531 9.60853 139.83 9.22098 141.488 9.22098C143.656 9.22098 145.287 9.91738 146.386 11.3141C147.508 12.7108 148.07 14.7016 148.07 17.2866V30.0439H142.129V17.7508C142.129 16.4328 141.917 15.463 141.488 14.8433C141.061 14.1961 140.298 13.8734 139.2 13.8734C138.725 13.8728 138.252 13.9384 137.795 14.0682C137.35 14.1677 136.928 14.352 136.552 14.6111C136.204 14.8669 135.923 15.1915 135.71 15.579C135.494 15.941 135.388 16.3679 135.388 16.8577V30.0439H129.449ZM162.146 30.5082C160.54 30.5082 159.108 30.2623 157.851 29.7705C156.646 29.2881 155.553 28.5622 154.641 27.638C153.758 26.6623 153.088 25.5133 152.673 24.2643C152.245 22.9462 152.032 21.4728 152.032 19.8439C152.032 18.2426 152.245 16.7948 152.673 15.5023C153.06 14.2583 153.702 13.109 154.56 12.1285C155.428 11.1898 156.498 10.4606 157.69 9.99607C158.921 9.47869 160.326 9.22098 161.904 9.22098C163.643 9.22098 165.13 9.50426 166.359 10.0728C167.616 10.6433 168.633 11.4046 169.409 12.3607C170.211 13.3187 170.786 14.4302 171.134 15.6951C171.508 16.9364 171.696 18.2426 171.696 19.6118V21.3174H158.172V21.6282C158.172 22.9718 158.546 24.0459 159.295 24.8466C160.045 25.6216 161.223 26.0092 162.828 26.0092C164.058 26.0092 165.061 25.777 165.838 25.3128C166.613 24.821 167.335 24.2387 168.004 23.5679L170.974 27.1344C170.038 28.1948 168.807 29.023 167.282 29.6171C165.783 30.2111 164.071 30.5082 162.146 30.5082ZM162.024 13.4466C160.822 13.4466 159.871 13.8341 159.175 14.6092C158.506 15.3607 158.172 16.3679 158.172 17.6348V17.9456H165.557V17.5954C165.557 16.3561 165.262 15.3607 164.673 14.6111C164.111 13.8341 163.23 13.4466 162.024 13.4466ZM188.815 26.6308H188.614C188.447 27.1861 188.189 27.7099 187.851 28.181C187.49 28.6593 187.057 29.0782 186.567 29.4223C186.085 29.7567 185.524 30.0164 184.881 30.1974C184.26 30.4054 183.609 30.5104 182.955 30.5082C180.279 30.5082 178.259 29.6033 176.896 27.7934C175.53 25.958 174.85 23.3082 174.85 19.8459C174.85 16.3816 175.53 13.7436 176.896 11.9357C178.259 10.1259 180.279 9.22098 182.955 9.22098C184.32 9.22098 185.524 9.58295 186.567 10.3069C187.637 11.0308 188.319 11.9593 188.614 13.0984H188.815V1.3482H194.754V30.0439H188.815V26.6308ZM184.922 25.8557C186.045 25.8557 186.968 25.5961 187.69 25.0787C188.439 24.5377 188.815 23.8 188.815 22.8695V16.8597C188.815 15.9292 188.439 15.2052 187.69 14.6879C186.968 14.1449 186.045 13.8734 184.922 13.8734C183.799 13.8734 182.862 14.261 182.113 15.0361C181.389 15.7856 181.029 16.8066 181.029 18.099V21.6282C181.029 22.9207 181.389 23.9554 182.113 24.7305C182.862 25.48 183.799 25.8557 184.922 25.8557ZM92.1444 65.918V38.1803H109.22V40.2656H94.505V50.8098H108.393V52.8951H94.505V63.8328H109.22V65.918H92.1444ZM122.333 66.2328C120.47 66.2328 118.871 65.8256 117.533 65.0131C116.186 64.1637 115.109 62.9494 114.425 61.5115C113.717 59.9908 113.363 58.2321 113.363 56.2393C113.363 54.219 113.717 52.4879 114.425 51.0459C115.159 49.6039 116.195 48.4885 117.533 47.7016C118.871 46.8892 120.47 46.482 122.333 46.482C123.513 46.482 124.654 46.7043 125.756 47.1508C126.883 47.5974 127.828 48.2131 128.589 49L127.645 50.8098C126.906 50.0713 126.022 49.4951 125.048 49.118C124.212 48.7677 123.318 48.5808 122.412 48.5672C120.287 48.5672 118.647 49.2361 117.494 50.5738C116.365 51.8859 115.802 53.7862 115.802 56.2787C115.802 58.7436 116.365 60.6852 117.494 62.1016C118.647 63.4925 120.287 64.1869 122.412 64.1869C123.25 64.1869 124.129 64.0157 125.048 63.6754C125.965 63.3075 126.83 62.7311 127.645 61.9443L128.589 63.7541C127.828 64.5154 126.87 65.1174 125.717 65.5639C124.642 65.9995 123.493 66.2265 122.333 66.2328ZM140.203 66.2328C138.421 66.2328 136.873 65.8256 135.561 65.0131C134.251 64.2007 133.228 63.0597 132.492 61.5902C131.784 60.1207 131.43 58.3777 131.43 56.3574C131.43 54.3646 131.784 52.6334 132.492 51.1639C133.228 49.6689 134.251 48.5141 135.561 47.7016C136.873 46.8892 138.421 46.482 140.203 46.482C142.013 46.482 143.575 46.8892 144.885 47.7016C146.197 48.5141 147.207 49.6689 147.915 51.1639C148.651 52.6334 149.016 54.3646 149.016 56.3574C149.016 58.3777 148.651 60.1207 147.915 61.5902C147.207 63.0597 146.197 64.2007 144.885 65.0131C143.575 65.8256 142.013 66.2328 140.203 66.2328ZM140.203 64.2262C142.17 64.2262 143.719 63.5436 144.846 62.1803C146.001 60.817 146.577 58.8754 146.577 56.3574C146.577 53.8649 146.001 51.9371 144.846 50.5738C143.719 49.2105 142.17 48.5279 140.203 48.5279C138.289 48.5279 136.755 49.2105 135.6 50.5738C134.445 51.9371 133.869 53.8649 133.869 56.3574C133.869 58.8754 134.447 60.817 135.6 62.1803C136.755 63.5436 138.289 64.2262 140.203 64.2262ZM160.737 66.2328C159.793 66.2328 158.86 66.1403 157.944 65.9574C157.075 65.7814 156.23 65.5041 155.426 65.1311C154.704 64.7907 154.04 64.3393 153.458 63.7934L154.324 62.023C154.979 62.5482 155.662 62.981 156.37 63.3213C157.078 63.6361 157.798 63.8721 158.534 64.0295C159.293 64.1869 160.054 64.2656 160.816 64.2656C162.415 64.2656 163.635 63.9646 164.475 63.3607C165.313 62.7567 165.734 61.9443 165.734 60.9213C165.734 60.0813 165.458 59.44 164.908 58.9934C164.382 58.5213 163.517 58.1416 162.311 57.8525L158.888 57.0656C157.235 56.6977 156.016 56.1075 155.229 55.2951C154.442 54.4551 154.049 53.381 154.049 52.0689C154.049 50.9416 154.336 49.958 154.914 49.118C155.516 48.278 156.356 47.6367 157.432 47.1902C158.534 46.718 159.793 46.482 161.209 46.482C162.058 46.4799 162.905 46.5856 163.727 46.7967C164.54 46.9797 165.287 47.2551 165.97 47.623C166.65 47.9908 167.241 48.4492 167.74 49L166.796 50.7705C166.296 50.271 165.726 49.8469 165.104 49.5115C164.513 49.1752 163.877 48.9236 163.216 48.7639C162.55 48.5789 161.861 48.4863 161.17 48.4885C159.647 48.4885 158.467 48.8033 157.629 49.4328C156.814 50.0623 156.409 50.9141 156.409 51.9902C156.409 52.8026 156.657 53.4597 157.157 53.9574C157.68 54.4551 158.494 54.8367 159.596 55.0984L163.019 55.8852C164.723 56.2787 165.995 56.8689 166.835 57.6557C167.673 58.417 168.094 59.4518 168.094 60.7639C168.094 61.8912 167.791 62.8748 167.19 63.7148C166.586 64.5272 165.734 65.1567 164.632 65.6033C163.531 66.0223 162.232 66.2328 160.737 66.2328ZM175.757 73L179.14 65.2885V66.3902L170.799 46.8361H173.475L180.714 64.4623H179.73L187.009 46.8361H189.606L178.353 73H175.757ZM199.562 66.2328C198.624 66.2334 197.688 66.1412 196.769 65.9574C195.9 65.7816 195.055 65.5043 194.251 65.1311C193.529 64.7908 192.865 64.3394 192.283 63.7934L193.149 62.023C193.804 62.5482 194.487 62.981 195.195 63.3213C195.903 63.6361 196.623 63.8721 197.359 64.0295C198.118 64.1869 198.879 64.2656 199.641 64.2656C201.24 64.2656 202.46 63.9646 203.3 63.3607C204.138 62.7567 204.559 61.9443 204.559 60.9213C204.559 60.0813 204.283 59.44 203.732 58.9934C203.207 58.5213 202.342 58.1416 201.136 57.8525L197.713 57.0656C196.06 56.6977 194.841 56.1075 194.054 55.2951C193.267 54.4551 192.873 53.381 192.873 52.0689C192.873 50.9416 193.161 49.958 193.739 49.118C194.341 48.278 195.181 47.6367 196.257 47.1902C197.359 46.718 198.618 46.482 200.034 46.482C200.9 46.482 201.738 46.5862 202.552 46.7967C203.365 46.9797 204.112 47.2551 204.795 47.623C205.475 47.9908 206.066 48.4492 206.565 49L205.621 50.7705C205.121 50.2713 204.551 49.8472 203.929 49.5115C203.338 49.1754 202.702 48.9238 202.041 48.7639C201.374 48.579 200.686 48.4864 199.995 48.4885C198.472 48.4885 197.292 48.8033 196.454 49.4328C195.639 50.0623 195.234 50.9141 195.234 51.9902C195.234 52.8026 195.482 53.4597 195.982 53.9574C196.505 54.4551 197.319 54.8367 198.421 55.0984L201.844 55.8852C203.548 56.2787 204.82 56.8689 205.66 57.6557C206.498 58.417 206.919 59.4518 206.919 60.7639C206.919 61.8912 206.616 62.8748 206.014 63.7148C205.41 64.5272 204.559 65.1567 203.457 65.6033C202.355 66.0223 201.057 66.2328 199.562 66.2328ZM219.535 66.2328C217.411 66.2328 215.809 65.6564 214.735 64.5016C213.685 63.3469 213.161 61.6944 213.161 59.5443V48.7639H209.384V46.8361H213.161V40.9344H215.561V46.8361H221.738V48.7639H215.561V59.2295C215.561 60.8289 215.888 62.0485 216.545 62.8885C217.2 63.7285 218.288 64.1475 219.811 64.1475C220.255 64.1475 220.688 64.0944 221.109 63.9902C221.528 63.8584 221.896 63.7403 222.211 63.6361L222.683 65.5246C222.393 65.7075 221.935 65.8649 221.306 65.9967C220.676 66.1541 220.086 66.2328 219.535 66.2328ZM234.016 66.2328C232.049 66.2328 230.357 65.8393 228.94 65.0525C227.537 64.2783 226.399 63.0992 225.675 61.6689C224.915 60.1993 224.534 58.4564 224.534 56.4361C224.534 54.4433 224.915 52.7121 225.675 51.2426C226.436 49.7475 227.485 48.581 228.822 47.741C230.188 46.901 231.748 46.482 233.504 46.482C235.21 46.482 236.652 46.8616 237.832 47.623C239.04 48.3567 239.957 49.419 240.586 50.8098C241.243 52.1731 241.57 53.8256 241.57 55.7672V56.8689H226.265V55.0984H240.075L239.445 55.6098C239.445 53.3534 238.948 51.5967 237.95 50.3377C236.955 49.0531 235.485 48.4098 233.544 48.4098C232.102 48.4098 230.882 48.7502 229.885 49.4328C228.889 50.0879 228.142 51.0066 227.642 52.1869C227.144 53.3416 226.894 54.6793 226.894 56.2V56.3967C226.894 58.0748 227.158 59.5049 227.681 60.6852C228.232 61.84 229.047 62.7174 230.121 63.3213C231.197 63.9252 232.47 64.2262 233.937 64.2262C235.117 64.2262 236.219 64.0433 237.242 63.6754C238.292 63.3075 239.315 62.6918 240.311 61.8262L241.255 63.6361C240.417 64.423 239.341 65.0525 238.029 65.5246C236.719 65.9967 235.381 66.2328 234.016 66.2328ZM246.934 65.918V46.8361H249.295V51.282H248.862C249.177 50.259 249.635 49.3934 250.239 48.6853C250.869 47.9771 251.616 47.44 252.482 47.0721C253.348 46.6787 254.292 46.482 255.315 46.482C256.993 46.482 258.33 46.8892 259.328 47.7016C260.351 48.5141 261.02 49.7338 261.334 51.3607H260.744C261.157 49.9393 262.029 48.6944 263.223 47.8197C264.456 46.9285 265.898 46.482 267.551 46.482C268.967 46.482 270.134 46.7574 271.052 47.3082C271.997 47.859 272.705 48.6852 273.177 49.7869C273.649 50.863 273.885 52.2262 273.885 53.8787V65.918H271.485V54.0754C271.485 52.1613 271.145 50.7705 270.462 49.9049C269.807 49.0138 268.692 48.5672 267.118 48.5672C266.016 48.5672 265.047 48.8289 264.207 49.3541C263.355 49.8929 262.684 50.6738 262.279 51.5967C261.832 52.5666 261.61 53.7213 261.61 55.059V65.918H259.21V54.0754C259.21 52.1613 258.87 50.7705 258.187 49.9049C257.532 49.0138 256.43 48.5672 254.882 48.5672C253.755 48.5672 252.771 48.8289 251.931 49.3541C251.119 49.8793 250.475 50.6269 250.003 51.5967C249.557 52.5666 249.334 53.7213 249.334 55.059V65.918H246.934Z" fill="black"/>
<defs>
<linearGradient id="paint0_linear_311_51" x1="74.9252" y1="21.459" x2="52.8708" y2="42.4629" gradientUnits="userSpaceOnUse">
<stop stop-color="#536DFE"/>
<stop offset="1" stop-color="#FF4848"/>
</linearGradient>
<linearGradient id="paint1_linear_311_51" x1="44.3548" y1="36.8149" x2="1.53439" y2="58.4759" gradientUnits="userSpaceOnUse">
<stop stop-color="#536DFE"/>
<stop offset="1" stop-color="#FF4848"/>
</linearGradient>
<linearGradient id="paint2_linear_311_51" x1="49.9494" y1="11.4973" x2="38.5711" y2="54.3589" gradientUnits="userSpaceOnUse">
<stop stop-color="#536DFE"/>
<stop offset="1" stop-color="#FF4848"/>
</linearGradient>
<linearGradient id="paint3_linear_311_51" x1="50.7582" y1="10.5293" x2="18.1536" y2="40.4526" gradientUnits="userSpaceOnUse">
<stop offset="0.167" stop-color="#536DFE"/>
<stop offset="1" stop-color="#FF4848"/>
</linearGradient>
</defs>
</svg>
