<svg width="274" height="73" viewBox="0 0 274 73" fill="none" xmlns="http://www.w3.org/2000/svg">
<path d="M35.9075 55.7118L74.9587 16.1255L77.3174 18.5177L79.678 20.9078L40.6269 60.4941L38.2662 58.1039L35.9075 55.7118Z" fill="url(#paint0_linear_1_47)"/>
<path d="M1.77835 55.1099L75.7613 15.5295L77.3154 18.5197L78.8734 21.5099L4.89245 61.0902L3.33442 58.1L1.77835 55.1099Z" fill="url(#paint1_linear_1_47)"/>
<path d="M52.3082 12.5256L41.5141 58.881L38.2682 58.102L35.0223 57.3269L45.8144 10.9734L49.0603 11.7505L52.3082 12.5256Z" fill="url(#paint2_linear_1_47)"/>
<path d="M3.33443 61.4836C5.1777 61.4836 6.67082 59.9688 6.67082 58.1019C6.67082 56.235 5.17574 54.7223 3.33443 54.7223C1.49311 54.7223 0 56.235 0 58.1019C0 59.9708 1.49508 61.4836 3.33443 61.4836ZM38.2682 61.4836C40.1095 61.4836 41.6026 59.9688 41.6026 58.1019C41.6026 56.235 40.1095 54.7223 38.2682 54.7223C36.4249 54.7223 34.9318 56.235 34.9318 58.1019C34.9318 59.9708 36.4269 61.4836 38.2682 61.4836Z" fill="#FF4848"/>
<path d="M49.0623 15.1321C50.9036 15.1321 52.3967 13.6174 52.3967 11.7485C52.3967 9.88359 50.9036 8.36884 49.0623 8.36884C47.219 8.36884 45.7259 9.88359 45.7259 11.7505C45.7259 13.6174 47.221 15.1321 49.0623 15.1321Z" fill="#536DFE"/>
<path d="M0.977722 55.7099L46.7154 9.34659L49.0761 11.7368L51.4328 14.1289L5.6951 60.4941L3.33444 58.102L0.977722 55.7099Z" fill="url(#paint3_linear_1_47)"/>
<path d="M77.3194 21.8954C79.1626 21.8954 80.6557 20.3807 80.6557 18.5138C80.6557 16.6469 79.1607 15.1341 77.3194 15.1341C75.478 15.1341 73.9849 16.6469 73.9849 18.5138C73.9849 20.3826 75.478 21.8954 77.3194 21.8954Z" fill="#536DFE"/>
<path d="M108.069 29.5439L106.062 23.1052H96.7121L94.7056 29.5439H88.5246L97.7548 2.47705H105.301L114.409 29.542L108.069 29.5439ZM101.449 7.82787H101.249L98.16 18.1046H104.579L101.449 7.82787ZM120.934 7.01344C119.73 7.01344 118.849 6.75574 118.287 6.23836C117.751 5.69541 117.484 5.01082 117.484 4.18459V3.33082C117.484 2.50459 117.751 1.8318 118.287 1.31443C118.847 0.771475 119.73 0.5 120.934 0.5C122.138 0.5 123.008 0.771475 123.543 1.31443C124.106 1.8318 124.387 2.50262 124.387 3.33082V4.18459C124.387 5.01082 124.106 5.69541 123.543 6.23836C123.008 6.75574 122.138 7.01344 120.934 7.01344ZM117.964 9.18525H123.905V29.5439H117.964V9.18525ZM129.449 29.5439V9.18525H135.39V12.6377H135.63C136.019 11.5561 136.7 10.603 137.597 9.88361C138.531 9.10853 139.83 8.72098 141.488 8.72098C143.656 8.72098 145.287 9.41738 146.386 10.8141C147.508 12.2108 148.07 14.2016 148.07 16.7866V29.5439H142.129V17.2508C142.129 15.9328 141.917 14.963 141.488 14.3433C141.061 13.6961 140.298 13.3734 139.2 13.3734C138.725 13.3728 138.252 13.4384 137.795 13.5682C137.35 13.6677 136.928 13.852 136.552 14.1111C136.204 14.3669 135.923 14.6915 135.71 15.079C135.494 15.441 135.388 15.8679 135.388 16.3577V29.5439H129.449ZM162.146 30.0082C160.54 30.0082 159.108 29.7623 157.851 29.2705C156.646 28.7881 155.553 28.0622 154.641 27.138C153.758 26.1623 153.088 25.0133 152.673 23.7643C152.245 22.4462 152.032 20.9728 152.032 19.3439C152.032 17.7426 152.245 16.2948 152.673 15.0023C153.06 13.7583 153.702 12.609 154.56 11.6285C155.428 10.6898 156.498 9.96059 157.69 9.49607C158.921 8.97869 160.326 8.72098 161.904 8.72098C163.643 8.72098 165.13 9.00426 166.359 9.57279C167.616 10.1433 168.633 10.9046 169.409 11.8607C170.211 12.8187 170.786 13.9302 171.134 15.1951C171.508 16.4364 171.696 17.7426 171.696 19.1118V20.8174H158.172V21.1282C158.172 22.4718 158.546 23.5459 159.295 24.3466C160.045 25.1216 161.223 25.5092 162.828 25.5092C164.058 25.5092 165.061 25.277 165.838 24.8128C166.613 24.321 167.335 23.7387 168.004 23.0679L170.974 26.6344C170.038 27.6948 168.807 28.523 167.282 29.1171C165.783 29.7111 164.071 30.0082 162.146 30.0082ZM162.024 12.9466C160.822 12.9466 159.871 13.3341 159.175 14.1092C158.506 14.8607 158.172 15.8679 158.172 17.1348V17.4456H165.557V17.0954C165.557 15.8561 165.262 14.8607 164.673 14.1111C164.111 13.3341 163.23 12.9466 162.024 12.9466ZM188.815 26.1308H188.614C188.447 26.6861 188.189 27.2099 187.851 27.681C187.49 28.1593 187.057 28.5782 186.567 28.9223C186.085 29.2567 185.524 29.5164 184.881 29.6974C184.26 29.9054 183.609 30.0104 182.955 30.0082C180.279 30.0082 178.259 29.1033 176.896 27.2934C175.53 25.458 174.85 22.8082 174.85 19.3459C174.85 15.8816 175.53 13.2436 176.896 11.4357C178.259 9.6259 180.279 8.72098 182.955 8.72098C184.32 8.72098 185.524 9.08295 186.567 9.80689C187.637 10.5308 188.319 11.4593 188.614 12.5984H188.815V0.848197H194.754V29.5439H188.815V26.1308ZM184.922 25.3557C186.045 25.3557 186.968 25.0961 187.69 24.5787C188.439 24.0377 188.815 23.3 188.815 22.3695V16.3597C188.815 15.4292 188.439 14.7052 187.69 14.1879C186.968 13.6449 186.045 13.3734 184.922 13.3734C183.799 13.3734 182.862 13.761 182.113 14.5361C181.389 15.2856 181.029 16.3066 181.029 17.599V21.1282C181.029 22.4207 181.389 23.4554 182.113 24.2305C182.862 24.98 183.799 25.3557 184.922 25.3557ZM92.1443 65.418V37.6803H109.22V39.7656H94.5049V50.3098H108.393V52.3951H94.5049V63.3328H109.22V65.418H92.1443ZM122.333 65.7328C120.47 65.7328 118.871 65.3256 117.533 64.5131C116.186 63.6637 115.109 62.4494 114.425 61.0115C113.717 59.4908 113.363 57.7321 113.363 55.7393C113.363 53.719 113.717 51.9879 114.425 50.5459C115.159 49.1039 116.195 47.9885 117.533 47.2016C118.871 46.3892 120.47 45.982 122.333 45.982C123.513 45.982 124.654 46.2043 125.756 46.6508C126.883 47.0974 127.828 47.7131 128.589 48.5L127.645 50.3098C126.906 49.5713 126.022 48.9951 125.048 48.618C124.212 48.2677 123.318 48.0808 122.412 48.0672C120.287 48.0672 118.647 48.7361 117.494 50.0738C116.365 51.3859 115.802 53.2862 115.802 55.7787C115.802 58.2436 116.365 60.1852 117.494 61.6016C118.647 62.9925 120.287 63.6869 122.412 63.6869C123.25 63.6869 124.129 63.5157 125.048 63.1754C125.965 62.8075 126.83 62.2311 127.645 61.4443L128.589 63.2541C127.828 64.0154 126.87 64.6174 125.717 65.0639C124.642 65.4995 123.493 65.7265 122.333 65.7328ZM140.203 65.7328C138.421 65.7328 136.873 65.3256 135.561 64.5131C134.251 63.7007 133.228 62.5597 132.492 61.0902C131.784 59.6207 131.43 57.8777 131.43 55.8574C131.43 53.8646 131.784 52.1334 132.492 50.6639C133.228 49.1689 134.251 48.0141 135.561 47.2016C136.873 46.3892 138.421 45.982 140.203 45.982C142.013 45.982 143.575 46.3892 144.885 47.2016C146.197 48.0141 147.207 49.1689 147.915 50.6639C148.651 52.1334 149.016 53.8646 149.016 55.8574C149.016 57.8777 148.651 59.6207 147.915 61.0902C147.207 62.5597 146.197 63.7007 144.885 64.5131C143.575 65.3256 142.013 65.7328 140.203 65.7328ZM140.203 63.7262C142.17 63.7262 143.719 63.0436 144.846 61.6803C146.001 60.317 146.577 58.3754 146.577 55.8574C146.577 53.3649 146.001 51.4371 144.846 50.0738C143.719 48.7105 142.17 48.0279 140.203 48.0279C138.289 48.0279 136.755 48.7105 135.6 50.0738C134.445 51.4371 133.869 53.3649 133.869 55.8574C133.869 58.3754 134.447 60.317 135.6 61.6803C136.755 63.0436 138.289 63.7262 140.203 63.7262ZM160.737 65.7328C159.793 65.7328 158.86 65.6403 157.944 65.4574C157.075 65.2814 156.23 65.0041 155.426 64.6311C154.704 64.2907 154.04 63.8393 153.458 63.2934L154.324 61.523C154.979 62.0482 155.662 62.481 156.37 62.8213C157.078 63.1361 157.798 63.3721 158.534 63.5295C159.293 63.6869 160.054 63.7656 160.816 63.7656C162.415 63.7656 163.635 63.4646 164.475 62.8607C165.313 62.2567 165.734 61.4443 165.734 60.4213C165.734 59.5813 165.458 58.94 164.908 58.4934C164.382 58.0213 163.517 57.6416 162.311 57.3525L158.888 56.5656C157.235 56.1977 156.016 55.6075 155.229 54.7951C154.442 53.9551 154.049 52.881 154.049 51.5689C154.049 50.4416 154.336 49.458 154.914 48.618C155.516 47.778 156.356 47.1367 157.432 46.6902C158.534 46.218 159.793 45.982 161.209 45.982C162.058 45.9799 162.905 46.0856 163.727 46.2967C164.54 46.4797 165.287 46.7551 165.97 47.123C166.65 47.4908 167.241 47.9492 167.74 48.5L166.796 50.2705C166.296 49.771 165.726 49.3469 165.104 49.0115C164.513 48.6752 163.877 48.4236 163.216 48.2639C162.55 48.0789 161.861 47.9863 161.17 47.9885C159.647 47.9885 158.467 48.3033 157.629 48.9328C156.814 49.5623 156.409 50.4141 156.409 51.4902C156.409 52.3026 156.657 52.9597 157.157 53.4574C157.68 53.9551 158.494 54.3367 159.596 54.5984L163.019 55.3852C164.723 55.7787 165.995 56.3689 166.835 57.1557C167.673 57.917 168.094 58.9518 168.094 60.2639C168.094 61.3912 167.791 62.3748 167.19 63.2148C166.586 64.0272 165.734 64.6567 164.632 65.1033C163.531 65.5223 162.232 65.7328 160.737 65.7328ZM175.757 72.5L179.14 64.7885V65.8902L170.799 46.3361H173.475L180.714 63.9623H179.73L187.009 46.3361H189.606L178.353 72.5H175.757ZM199.562 65.7328C198.624 65.7334 197.688 65.6412 196.769 65.4574C195.9 65.2816 195.055 65.0043 194.251 64.6311C193.529 64.2908 192.865 63.8394 192.283 63.2934L193.149 61.523C193.804 62.0482 194.487 62.481 195.195 62.8213C195.903 63.1361 196.623 63.3721 197.359 63.5295C198.118 63.6869 198.879 63.7656 199.641 63.7656C201.24 63.7656 202.46 63.4646 203.3 62.8607C204.138 62.2567 204.559 61.4443 204.559 60.4213C204.559 59.5813 204.283 58.94 203.732 58.4934C203.207 58.0213 202.342 57.6416 201.136 57.3525L197.713 56.5656C196.06 56.1977 194.841 55.6075 194.054 54.7951C193.267 53.9551 192.873 52.881 192.873 51.5689C192.873 50.4416 193.161 49.458 193.739 48.618C194.341 47.778 195.181 47.1367 196.257 46.6902C197.359 46.218 198.618 45.982 200.034 45.982C200.9 45.982 201.738 46.0862 202.552 46.2967C203.365 46.4797 204.112 46.7551 204.795 47.123C205.475 47.4908 206.066 47.9492 206.565 48.5L205.621 50.2705C205.121 49.7713 204.551 49.3472 203.929 49.0115C203.338 48.6754 202.702 48.4238 202.041 48.2639C201.374 48.079 200.686 47.9864 199.995 47.9885C198.472 47.9885 197.292 48.3033 196.454 48.9328C195.639 49.5623 195.234 50.4141 195.234 51.4902C195.234 52.3026 195.482 52.9597 195.982 53.4574C196.505 53.9551 197.319 54.3367 198.421 54.5984L201.844 55.3852C203.548 55.7787 204.82 56.3689 205.66 57.1557C206.498 57.917 206.919 58.9518 206.919 60.2639C206.919 61.3912 206.616 62.3748 206.014 63.2148C205.41 64.0272 204.559 64.6567 203.457 65.1033C202.355 65.5223 201.057 65.7328 199.562 65.7328ZM219.535 65.7328C217.411 65.7328 215.809 65.1564 214.735 64.0016C213.685 62.8469 213.161 61.1944 213.161 59.0443V48.2639H209.384V46.3361H213.161V40.4344H215.561V46.3361H221.738V48.2639H215.561V58.7295C215.561 60.3289 215.888 61.5485 216.545 62.3885C217.2 63.2285 218.288 63.6475 219.811 63.6475C220.255 63.6475 220.688 63.5944 221.109 63.4902C221.528 63.3584 221.896 63.2403 222.211 63.1361L222.683 65.0246C222.393 65.2075 221.935 65.3649 221.306 65.4967C220.676 65.6541 220.086 65.7328 219.535 65.7328ZM234.016 65.7328C232.049 65.7328 230.357 65.3393 228.94 64.5525C227.537 63.7783 226.399 62.5992 225.675 61.1689C224.915 59.6993 224.534 57.9564 224.534 55.9361C224.534 53.9433 224.915 52.2121 225.675 50.7426C226.436 49.2475 227.485 48.081 228.822 47.241C230.188 46.401 231.748 45.982 233.504 45.982C235.21 45.982 236.652 46.3616 237.832 47.123C239.04 47.8567 239.957 48.919 240.586 50.3098C241.243 51.6731 241.57 53.3256 241.57 55.2672V56.3689H226.265V54.5984H240.075L239.445 55.1098C239.445 52.8534 238.948 51.0967 237.95 49.8377C236.955 48.5531 235.485 47.9098 233.544 47.9098C232.102 47.9098 230.882 48.2502 229.885 48.9328C228.889 49.5879 228.142 50.5066 227.642 51.6869C227.144 52.8416 226.894 54.1793 226.894 55.7V55.8967C226.894 57.5748 227.158 59.0049 227.681 60.1852C228.232 61.34 229.047 62.2174 230.121 62.8213C231.197 63.4252 232.47 63.7262 233.937 63.7262C235.117 63.7262 236.219 63.5433 237.242 63.1754C238.292 62.8075 239.315 62.1918 240.311 61.3262L241.255 63.1361C240.417 63.923 239.341 64.5525 238.029 65.0246C236.719 65.4967 235.381 65.7328 234.016 65.7328ZM246.934 65.418V46.3361H249.295V50.782H248.862C249.177 49.759 249.635 48.8934 250.239 48.1853C250.869 47.4771 251.616 46.94 252.482 46.5721C253.348 46.1787 254.292 45.982 255.315 45.982C256.993 45.982 258.33 46.3892 259.328 47.2016C260.351 48.0141 261.02 49.2338 261.334 50.8607H260.744C261.157 49.4393 262.029 48.1944 263.223 47.3197C264.456 46.4285 265.898 45.982 267.551 45.982C268.967 45.982 270.134 46.2574 271.052 46.8082C271.997 47.359 272.705 48.1852 273.177 49.2869C273.649 50.363 273.885 51.7262 273.885 53.3787V65.418H271.485V53.5754C271.485 51.6613 271.145 50.2705 270.462 49.4049C269.807 48.5138 268.692 48.0672 267.118 48.0672C266.016 48.0672 265.047 48.3289 264.207 48.8541C263.355 49.3929 262.684 50.1738 262.279 51.0967C261.832 52.0666 261.61 53.2213 261.61 54.559V65.418H259.21V53.5754C259.21 51.6613 258.87 50.2705 258.187 49.4049C257.532 48.5138 256.43 48.0672 254.882 48.0672C253.755 48.0672 252.771 48.3289 251.931 48.8541C251.119 49.3793 250.475 50.1269 250.003 51.0967C249.557 52.0666 249.334 53.2213 249.334 54.559V65.418H246.934Z" fill="white"/>
<defs>
<linearGradient id="paint0_linear_1_47" x1="74.9252" y1="20.959" x2="52.8708" y2="41.9629" gradientUnits="userSpaceOnUse">
<stop stop-color="#536DFE"/>
<stop offset="1" stop-color="#FF4848"/>
</linearGradient>
<linearGradient id="paint1_linear_1_47" x1="44.3548" y1="36.3151" x2="1.53442" y2="57.9761" gradientUnits="userSpaceOnUse">
<stop stop-color="#536DFE"/>
<stop offset="1" stop-color="#FF4848"/>
</linearGradient>
<linearGradient id="paint2_linear_1_47" x1="49.9495" y1="10.9971" x2="38.5712" y2="53.8587" gradientUnits="userSpaceOnUse">
<stop stop-color="#536DFE"/>
<stop offset="1" stop-color="#FF4848"/>
</linearGradient>
<linearGradient id="paint3_linear_1_47" x1="50.7581" y1="10.0292" x2="18.1535" y2="39.9525" gradientUnits="userSpaceOnUse">
<stop offset="0.167" stop-color="#536DFE"/>
<stop offset="1" stop-color="#FF4848"/>
</linearGradient>
</defs>
</svg>
