<svg width="242" height="73" viewBox="0 0 242 73" fill="none" xmlns="http://www.w3.org/2000/svg">
<g clip-path="url(#clip0_311_29)">
<mask id="mask0_311_29" style="mask-type:luminance" maskUnits="userSpaceOnUse" x="0" y="0" width="242" height="73">
<path d="M242 0.5H0V72.5H242V0.5Z" fill="white"/>
</mask>
<g mask="url(#mask0_311_29)">
<path d="M47.738 0.5H11.9695C5.38698 0.5 0 6.575 0 14V48.5937H47.738C60.9591 48.5937 71.6772 37.8275 71.6772 24.5469C71.6772 11.2663 60.9591 0.5 47.738 0.5Z" fill="#11F47D"/>
<path d="M47.738 72.5H11.9695C5.38698 72.5 0 66.425 0 59V24.4062H47.738C60.9591 24.4062 71.6772 35.1725 71.6772 48.4531C71.6772 61.7337 60.9591 72.5 47.738 72.5Z" fill="#1D72F4"/>
<path d="M68.5146 36.5C64.3847 29.2732 56.6276 24.4062 47.738 24.4062H0V48.5938H47.738C56.6276 48.5938 64.3847 43.7267 68.5146 36.5Z" fill="#00C78F"/>
<path d="M242 22.6733L232.354 39.4249V50.4623H227.809V39.4249L218.163 22.6733H223.341L230.101 34.9784L236.823 22.6733H242Z" fill="black"/>
<path d="M208.857 46.0964H220.119V50.4623H204.312V22.6733H208.857V46.0964Z" fill="black"/>
<path d="M200.576 50.4623H195.158L184.25 37.2418V50.4623H179.706V22.6733H184.25V35.1393L194.766 22.6733H200.179L188.993 36.2117L200.576 50.4623Z" fill="black"/>
<path d="M165.39 50.9791C162.728 50.9791 160.464 50.3703 158.592 49.1525C156.746 47.9345 155.458 46.2685 154.718 44.1507L158.63 41.8489C159.736 44.974 162.031 46.5329 165.508 46.5329C167.219 46.5329 168.497 46.2035 169.343 45.5409C170.212 44.8516 170.647 43.9669 170.647 42.8792C170.647 41.7916 170.186 40.8801 169.263 40.2979C168.34 39.689 166.708 39.0264 164.364 38.314C163.044 37.9157 161.981 37.5481 161.161 37.2034C160.345 36.8587 159.476 36.3839 158.554 35.775C157.658 35.1392 156.987 34.3578 156.537 33.4311C156.091 32.5043 155.866 31.4205 155.866 30.1758C155.866 27.7133 156.735 25.7677 158.473 24.3391C160.212 22.8838 162.309 22.1562 164.757 22.1562C166.972 22.1562 168.908 22.7 170.567 23.7838C172.226 24.8677 173.506 26.3652 174.402 28.2686L170.567 30.4937C169.408 27.9009 167.471 26.6026 164.757 26.6026C163.437 26.6026 162.385 26.9204 161.596 27.5562C160.807 28.1651 160.41 29.0001 160.41 30.0571C160.41 31.1141 160.807 31.9106 161.596 32.5196C162.412 33.1017 163.876 33.7222 165.984 34.3848C167.036 34.7294 167.803 34.9937 168.275 35.1775C168.775 35.3345 169.461 35.6025 170.331 35.9702C171.227 36.3417 171.898 36.7132 172.348 37.0808C172.794 37.4524 173.27 37.9158 173.769 38.4711C174.296 39.0264 174.665 39.6621 174.875 40.3783C175.085 41.0944 175.192 41.8988 175.192 42.7988C175.192 45.315 174.284 47.3103 172.466 48.7924C170.673 50.2478 168.313 50.9753 165.39 50.9753V50.9791Z" fill="black"/>
<path d="M150.246 22.6733H145.701V50.4661H150.246V22.6733Z" fill="black"/>
<path d="M125.216 26.9588V36.2499H131.739C132.952 36.2499 133.978 35.8018 134.824 34.9018C135.666 34.0018 136.089 32.9027 136.089 31.6082C136.089 30.3137 135.666 29.2146 134.824 28.3146C133.981 27.4146 132.952 26.9665 131.739 26.9665H125.216V26.9588ZM136.44 50.4622L130.592 40.3363H125.216V50.4622H120.671V22.6694H131.739C134.218 22.6694 136.311 23.5427 138.023 25.289C139.761 27.0086 140.63 29.115 140.63 31.6005C140.63 33.3737 140.116 35.0014 139.09 36.4835C138.087 37.9388 136.772 38.9997 135.136 39.6584L141.42 50.4584H136.44V50.4622Z" fill="black"/>
<path d="M107.613 46.1767C108.666 46.1767 109.55 45.8052 110.263 45.0661C111.003 44.3001 111.369 43.3733 111.369 42.2856C111.369 41.198 110.999 40.2865 110.263 39.5474C109.55 38.7814 108.669 38.3946 107.613 38.3946H100.301V46.1767H107.613ZM106.744 26.9588H100.301V34.2661H106.744C107.746 34.2661 108.589 33.9213 109.272 33.232C109.958 32.5159 110.301 31.6427 110.301 30.6124C110.301 29.5822 109.958 28.7205 109.272 28.0312C108.585 27.315 107.743 26.9588 106.744 26.9588ZM112.04 36.0507C113.252 36.6865 114.201 37.5597 114.884 38.6703C115.566 39.7809 115.913 41.064 115.913 42.5231C115.913 44.798 115.109 46.6937 113.504 48.1988C111.895 49.7078 109.935 50.4622 107.613 50.4622H95.7559V22.6694H106.744C109.009 22.6694 110.919 23.4124 112.474 24.8946C114.057 26.3499 114.846 28.1767 114.846 30.375C114.846 32.784 113.911 34.6759 112.04 36.0507Z" fill="black"/>
</g>
</g>
<defs>
<clipPath id="clip0_311_29">
<rect width="242" height="72" fill="white" transform="translate(0 0.5)"/>
</clipPath>
</defs>
</svg>
