<svg width="242" height="72" viewBox="0 0 242 72" fill="none" xmlns="http://www.w3.org/2000/svg">
<g clip-path="url(#clip0_1_18)">
<path d="M47.738 0H11.9695C5.38698 0 0 6.075 0 13.5V48.0937H47.738C60.9591 48.0937 71.6772 37.3275 71.6772 24.0469C71.6772 10.7663 60.9591 0 47.738 0Z" fill="#11F47D"/>
<path d="M47.738 72H11.9695C5.38698 72 0 65.925 0 58.5V23.9062H47.738C60.9591 23.9062 71.6772 34.6725 71.6772 47.9531C71.6772 61.2337 60.9591 72 47.738 72Z" fill="#1D72F4"/>
<path d="M68.5146 36C64.3847 28.7732 56.6276 23.9062 47.738 23.9062H0V48.0937H47.738C56.6276 48.0937 64.3847 43.2267 68.5146 36Z" fill="#00C78F"/>
<path d="M242 22.1732L232.354 38.9248V49.9622H227.809V38.9248L218.163 22.1732H223.341L230.101 34.4783L236.823 22.1732H242Z" fill="white"/>
<path d="M208.857 45.5963H220.119V49.9622H204.312V22.1732H208.857V45.5963Z" fill="white"/>
<path d="M200.576 49.9622H195.158L184.25 36.7417V49.9622H179.706V22.1732H184.25V34.6392L194.766 22.1732H200.179L188.993 35.7116L200.576 49.9622Z" fill="white"/>
<path d="M165.39 50.4792C162.728 50.4792 160.464 49.8703 158.592 48.6525C156.746 47.4345 155.458 45.7686 154.718 43.6507L158.63 41.349C159.736 44.4741 162.031 46.0329 165.508 46.0329C167.219 46.0329 168.497 45.7035 169.343 45.0409C170.212 44.3516 170.647 43.4669 170.647 42.3792C170.647 41.2916 170.186 40.3801 169.263 39.7979C168.34 39.189 166.708 38.5265 164.364 37.8141C163.044 37.4158 161.981 37.0482 161.161 36.7035C160.345 36.3588 159.476 35.8839 158.554 35.275C157.658 34.6392 156.987 33.8579 156.537 32.9312C156.091 32.0044 155.866 30.9205 155.866 29.6758C155.866 27.2133 156.735 25.2678 158.473 23.8392C160.212 22.3839 162.309 21.6563 164.757 21.6563C166.972 21.6563 168.908 22.2001 170.567 23.2839C172.226 24.3678 173.506 25.8652 174.402 27.7686L170.567 29.9937C169.408 27.4009 167.471 26.1026 164.757 26.1026C163.437 26.1026 162.385 26.4205 161.596 27.0563C160.807 27.6652 160.41 28.5001 160.41 29.5571C160.41 30.6141 160.807 31.4107 161.596 32.0197C162.412 32.6018 163.876 33.2222 165.984 33.8848C167.036 34.2294 167.803 34.4937 168.275 34.6775C168.775 34.8345 169.461 35.1026 170.331 35.4703C171.227 35.8418 171.898 36.2133 172.348 36.5809C172.794 36.9525 173.27 37.4159 173.769 37.9712C174.296 38.5265 174.665 39.1622 174.875 39.8784C175.085 40.5945 175.192 41.3988 175.192 42.2988C175.192 44.815 174.284 46.8103 172.466 48.2924C170.673 49.7478 168.313 50.4754 165.39 50.4754V50.4792Z" fill="white"/>
<path d="M150.246 22.1732H145.701V49.966H150.246V22.1732Z" fill="white"/>
<path d="M125.216 26.4588V35.7499H131.739C132.952 35.7499 133.978 35.3018 134.824 34.4018C135.666 33.5018 136.089 32.4027 136.089 31.1082C136.089 29.8137 135.666 28.7146 134.824 27.8146C133.981 26.9146 132.952 26.4665 131.739 26.4665H125.216V26.4588ZM136.44 49.9622L130.592 39.8363H125.216V49.9622H120.671V22.1694H131.739C134.218 22.1694 136.311 23.0427 138.023 24.789C139.761 26.5086 140.63 28.615 140.63 31.1005C140.63 32.8737 140.116 34.5014 139.09 35.9835C138.087 37.4388 136.772 38.4997 135.136 39.1584L141.42 49.9584H136.44V49.9622Z" fill="white"/>
<path d="M107.613 45.6767C108.666 45.6767 109.55 45.3052 110.263 44.5661C111.003 43.8001 111.369 42.8733 111.369 41.7856C111.369 40.698 110.999 39.7865 110.263 39.0474C109.55 38.2814 108.669 37.8946 107.613 37.8946H100.301V45.6767H107.613ZM106.744 26.4588H100.301V33.7661H106.744C107.746 33.7661 108.589 33.4213 109.272 32.732C109.958 32.0159 110.301 31.1427 110.301 30.1124C110.301 29.0822 109.958 28.2205 109.272 27.5312C108.585 26.815 107.743 26.4588 106.744 26.4588ZM112.04 35.5507C113.252 36.1865 114.201 37.0597 114.884 38.1703C115.566 39.2809 115.913 40.564 115.913 42.0231C115.913 44.298 115.109 46.1937 113.504 47.6988C111.895 49.2078 109.935 49.9622 107.613 49.9622H95.7558V22.1694H106.744C109.009 22.1694 110.919 22.9124 112.474 24.3946C114.057 25.8499 114.846 27.6767 114.846 29.875C114.846 32.284 113.911 34.1759 112.04 35.5507Z" fill="white"/>
</g>
<defs>
<clipPath id="clip0_1_18">
<rect width="242" height="72" fill="white"/>
</clipPath>
</defs>
</svg>
