<svg width="389" height="72" viewBox="0 0 389 72" fill="none" xmlns="http://www.w3.org/2000/svg">
<mask id="mask0_1_2" style="mask-type:luminance" maskUnits="userSpaceOnUse" x="0" y="0" width="99" height="72">
<path d="M98.0672 0H0V72H98.0672V0Z" fill="white"/>
</mask>
<g mask="url(#mask0_1_2)">
<path d="M16.911 68.5879C14.351 71.1851 10.1641 71.1851 7.60406 68.5879L4.53167 65.4709C2.01923 62.922 2.01923 58.8248 4.53166 56.2758L19.9853 40.5975C22.4977 38.0486 22.4977 33.9514 19.9853 31.4025L4.53166 15.7241C2.01923 13.1752 2.01923 9.07802 4.53167 6.52908L7.60406 3.41203C10.1641 0.814817 14.351 0.814824 16.911 3.41205L36.7742 23.564H36.7761H36.778L56.6405 43.7153C59.2005 46.3124 63.3875 46.3124 65.9476 43.7153L69.0204 40.5975C71.5328 38.0486 71.5328 33.9514 69.0204 31.4025L64.7963 27.1169C62.8696 25.1622 59.7184 25.1622 57.7917 27.1169C55.8649 29.0716 52.7137 29.0716 50.787 27.1169L46.5622 22.8307C44.0497 20.2817 44.0497 16.1846 46.5622 13.6356L56.6392 3.41205C59.1993 0.814831 63.3862 0.814824 65.9463 3.41205L93.5359 31.4025C96.0477 33.9514 96.0477 38.0486 93.5359 40.5975L65.9463 68.5879C63.3862 71.1851 59.1993 71.1851 56.6392 68.5879L41.4286 53.1562C38.8686 50.559 34.6817 50.559 32.1217 53.1562L16.911 68.5879Z" fill="white"/>
</g>
<path d="M136.13 50.4L131.247 40.8069L126.384 50.4H119.642L128.632 36.0204L119.642 21.3545H126.384L131.247 31.1113L136.13 21.3545H142.872L133.862 36.0204L142.872 50.4H136.13ZM146.427 50.4V21.3545H151.82V45.4295H166.326V50.4H146.427ZM203.796 50.8091C202.148 50.8091 200.547 50.6727 198.995 50.4C197.442 50.1136 196.053 49.7182 194.827 49.2136L195.562 43.6909C198.64 45 201.494 45.6545 204.123 45.6545C205.58 45.6545 206.697 45.3955 207.474 44.8773C208.25 44.3591 208.638 43.6159 208.638 42.6477C208.638 41.3796 207.841 40.3705 206.248 39.6204L202.08 37.5955C200.023 36.5863 198.429 35.3386 197.299 33.8523C196.168 32.3659 195.604 30.7227 195.604 28.9227C195.604 26.3864 196.441 24.4227 198.116 23.0318C199.792 21.6409 202.162 20.9455 205.226 20.9455C208.89 20.9455 212.002 22.1659 214.563 24.6069L210.845 28.8818C208.897 27.0136 207.031 26.0796 205.247 26.0796C204.048 26.0796 203.115 26.3386 202.447 26.8568C201.78 27.3614 201.446 28.0977 201.446 29.0659C201.446 30.3614 202.352 31.4864 204.164 32.4409L208.086 34.4659C210.129 35.5295 211.702 36.7705 212.806 38.1887C213.923 39.6068 214.481 41.1273 214.481 42.75C214.481 45.3273 213.555 47.3182 211.702 48.7227C209.85 50.1136 207.215 50.8091 203.796 50.8091ZM229.314 50.8091C226.195 50.8091 223.777 49.8273 222.061 47.8636C220.345 45.9 219.487 43.1318 219.487 39.5591C219.487 35.9727 220.345 33.2046 222.061 31.2545C223.777 29.2909 226.195 28.3091 229.314 28.3091C232.433 28.3091 234.851 29.2909 236.567 31.2545C238.283 33.2046 239.141 35.9727 239.141 39.5591C239.141 43.1318 238.283 45.9 236.567 47.8636C234.851 49.8273 232.433 50.8091 229.314 50.8091ZM229.314 45.5523C230.649 45.5523 231.677 45.0341 232.399 43.9978C233.121 42.9477 233.482 41.4682 233.482 39.5591C233.482 37.6364 233.121 36.1568 232.399 35.1204C231.677 34.0841 230.649 33.5659 229.314 33.5659C227.993 33.5659 226.964 34.0841 226.229 35.1204C225.507 36.1568 225.146 37.6364 225.146 39.5591C225.146 41.4682 225.507 42.9477 226.229 43.9978C226.964 45.0341 227.993 45.5523 229.314 45.5523ZM249.193 50.4V37.7796H242.614V33.0341H249.193V30.5591C249.193 23.0591 252.809 19.3091 260.042 19.3091C261.717 19.3091 263.331 19.4454 264.884 19.7182L264.353 24.8523C263.44 24.7432 262.629 24.6682 261.921 24.6273C261.226 24.5864 260.559 24.5659 259.919 24.5659C256.446 24.5659 254.709 26.4955 254.709 30.3545V33.0341H263.331V37.7796H254.709V50.4H249.193ZM282.944 50.8091C279.212 50.8091 276.516 50.0591 274.854 48.5591C273.192 47.0591 272.361 44.6591 272.361 41.3591V33.8113H267.172V28.7182H272.361V22.1727H277.877V28.7182H287.48V33.8113H277.877V40.8273C277.877 42.4773 278.3 43.6773 279.144 44.4273C280.002 45.1773 281.405 45.5523 283.353 45.5523C283.98 45.5523 284.647 45.5182 285.355 45.45C286.077 45.3682 286.894 45.2659 287.807 45.1432L288.297 50.3182C287.398 50.4818 286.52 50.6045 285.662 50.6864C284.817 50.7682 283.911 50.8091 282.944 50.8091ZM304.969 50.4L302.783 34.0568H302.537L300.351 50.4H293.119L291.689 28.7182H297.062L297.838 45.2455H298.206L300.678 28.7182H304.642L307.114 45.2455H307.481L308.81 28.7182H314.04L311.997 50.4H304.969ZM331.365 50.6045L331.017 45.8182H330.527C330.323 47.4818 329.656 48.7295 328.525 49.5614C327.409 50.3932 325.91 50.8091 324.03 50.8091C321.728 50.8091 319.938 50.2432 318.657 49.1113C317.377 47.9796 316.737 46.3705 316.737 44.2841C316.737 41.8568 317.574 39.9955 319.249 38.7C320.925 37.4045 323.301 36.7568 326.38 36.7568C327.279 36.7568 328.075 36.7909 328.77 36.8591C329.478 36.9273 330.16 37.0363 330.813 37.1864V37.125C330.813 35.9659 330.317 35.1204 329.322 34.5887C328.341 34.0432 326.877 33.7432 324.929 33.6887L319.393 33.5455L319.801 28.5136L324.521 28.575C328.443 28.6296 331.358 29.4068 333.265 30.9069C335.172 32.3932 336.125 34.5682 336.125 37.4318V45.45L339.129 45.9V50.4L331.365 50.6045ZM330.813 41.7477C330.024 41.5841 329.308 41.4886 328.668 41.4614C328.028 41.4341 327.354 41.4204 326.646 41.4204C323.785 41.4204 322.355 42.2386 322.355 43.875C322.355 45.3887 323.37 46.1455 325.399 46.1455C326.57 46.1455 327.551 45.9341 328.341 45.5113C329.145 45.075 329.751 44.5227 330.16 43.8545C330.568 43.1727 330.786 42.4704 330.813 41.7477ZM351.019 41.0727V45.6545H356.086V50.4H340.927V45.6545H345.503V33.4636H341.744V28.7182H350.202L350.835 33.6069H351.612C351.83 30.075 353.676 28.3091 357.148 28.3091C359.205 28.3091 360.778 29.0659 361.868 30.5796C362.972 32.0931 363.523 34.275 363.523 37.125H358.007C358.007 35.8432 357.768 34.9227 357.292 34.3636C356.829 33.8045 356.079 33.525 355.044 33.525C353.696 33.525 352.688 34.1796 352.021 35.4887C351.353 36.7978 351.019 38.6591 351.019 41.0727ZM378.131 50.8091C374.385 50.8091 371.491 49.8409 369.448 47.9045C367.405 45.9545 366.383 43.1591 366.383 39.5182C366.383 35.9727 367.248 33.2182 368.978 31.2545C370.722 29.2909 373.173 28.3091 376.333 28.3091C379.425 28.3091 381.815 29.2159 383.504 31.0295C385.193 32.8432 386.038 35.4818 386.038 38.9455C386.038 39.9273 385.997 40.8614 385.915 41.7477H372.165C373.01 44.2977 375.161 45.5727 378.621 45.5727C379.602 45.5727 380.569 45.525 381.522 45.4295C382.476 45.3205 383.449 45.1773 384.444 45L384.975 50.2364C383.586 50.4818 382.319 50.6386 381.175 50.7069C380.031 50.775 379.016 50.8091 378.131 50.8091ZM371.9 37.9022H380.603C380.603 36.4432 380.228 35.325 379.48 34.5477C378.743 33.7705 377.709 33.3818 376.374 33.3818C375.121 33.3818 374.106 33.7773 373.33 34.5682C372.567 35.3455 372.09 36.4568 371.9 37.9022Z" fill="white"/>
</svg>
