<svg width="389" height="73" viewBox="0 0 389 73" fill="none" xmlns="http://www.w3.org/2000/svg">
<mask id="mask0_311_44" style="mask-type:luminance" maskUnits="userSpaceOnUse" x="0" y="0" width="99" height="73">
<path d="M98.0672 0.5H0V72.5H98.0672V0.5Z" fill="white"/>
</mask>
<g mask="url(#mask0_311_44)">
<path d="M16.9111 69.0881C14.3511 71.6853 10.1642 71.6853 7.60418 69.0881L4.53179 65.9711C2.01935 63.4222 2.01935 59.325 4.53178 56.776L19.9854 41.0977C22.4978 38.5488 22.4978 34.4516 19.9854 31.9027L4.53178 16.2243C2.01935 13.6754 2.01935 9.57825 4.53179 7.02931L7.60418 3.91226C10.1642 1.31505 14.3511 1.31505 16.9111 3.91228L36.7743 24.0642H36.7762H36.7781L56.6406 44.2155C59.2006 46.8126 63.3876 46.8126 65.9477 44.2155L69.0205 41.0977C71.5329 38.5488 71.5329 34.4516 69.0205 31.9027L64.7964 27.6171C62.8697 25.6624 59.7185 25.6624 57.7918 27.6171C55.865 29.5718 52.7138 29.5718 50.7871 27.6171L46.5623 23.3309C44.0498 20.7819 44.0498 16.6848 46.5623 14.1358L56.6393 3.91228C59.1994 1.31506 63.3863 1.31505 65.9464 3.91228L93.536 31.9027C96.0478 34.4516 96.0478 38.5488 93.536 41.0977L65.9464 69.0881C63.3863 71.6853 59.1994 71.6853 56.6393 69.0881L41.4287 53.6564C38.8687 51.0592 34.6818 51.0592 32.1218 53.6564L16.9111 69.0881Z" fill="black"/>
</g>
<path d="M136.13 50.9L131.247 41.3069L126.384 50.9H119.642L128.632 36.5204L119.642 21.8545H126.384L131.247 31.6113L136.13 21.8545H142.872L133.862 36.5204L142.872 50.9H136.13ZM146.427 50.9V21.8545H151.82V45.9295H166.326V50.9H146.427ZM203.796 51.3091C202.148 51.3091 200.547 51.1727 198.995 50.9C197.442 50.6136 196.053 50.2182 194.827 49.7136L195.562 44.1909C198.64 45.5 201.494 46.1545 204.123 46.1545C205.58 46.1545 206.697 45.8955 207.474 45.3773C208.25 44.8591 208.638 44.1159 208.638 43.1477C208.638 41.8796 207.841 40.8705 206.248 40.1204L202.08 38.0955C200.023 37.0863 198.429 35.8386 197.299 34.3523C196.168 32.8659 195.604 31.2227 195.604 29.4227C195.604 26.8864 196.441 24.9227 198.116 23.5318C199.792 22.1409 202.162 21.4455 205.226 21.4455C208.89 21.4455 212.002 22.6659 214.563 25.1069L210.845 29.3818C208.897 27.5136 207.031 26.5796 205.247 26.5796C204.048 26.5796 203.115 26.8386 202.447 27.3568C201.78 27.8614 201.446 28.5977 201.446 29.5659C201.446 30.8614 202.352 31.9864 204.164 32.9409L208.086 34.9659C210.129 36.0295 211.702 37.2705 212.806 38.6887C213.923 40.1068 214.481 41.6273 214.481 43.25C214.481 45.8273 213.555 47.8182 211.702 49.2227C209.85 50.6136 207.215 51.3091 203.796 51.3091ZM229.314 51.3091C226.195 51.3091 223.777 50.3273 222.061 48.3636C220.345 46.4 219.487 43.6318 219.487 40.0591C219.487 36.4727 220.345 33.7046 222.061 31.7545C223.777 29.7909 226.195 28.8091 229.314 28.8091C232.433 28.8091 234.851 29.7909 236.567 31.7545C238.283 33.7046 239.141 36.4727 239.141 40.0591C239.141 43.6318 238.283 46.4 236.567 48.3636C234.851 50.3273 232.433 51.3091 229.314 51.3091ZM229.314 46.0523C230.649 46.0523 231.677 45.5341 232.399 44.4978C233.121 43.4477 233.482 41.9682 233.482 40.0591C233.482 38.1364 233.121 36.6568 232.399 35.6204C231.677 34.5841 230.649 34.0659 229.314 34.0659C227.993 34.0659 226.964 34.5841 226.229 35.6204C225.507 36.6568 225.146 38.1364 225.146 40.0591C225.146 41.9682 225.507 43.4477 226.229 44.4978C226.964 45.5341 227.993 46.0523 229.314 46.0523ZM249.193 50.9V38.2796H242.614V33.5341H249.193V31.0591C249.193 23.5591 252.809 19.8091 260.042 19.8091C261.717 19.8091 263.331 19.9454 264.884 20.2182L264.353 25.3523C263.44 25.2432 262.629 25.1682 261.921 25.1273C261.226 25.0864 260.559 25.0659 259.919 25.0659C256.446 25.0659 254.709 26.9955 254.709 30.8545V33.5341H263.331V38.2796H254.709V50.9H249.193ZM282.944 51.3091C279.212 51.3091 276.516 50.5591 274.854 49.0591C273.192 47.5591 272.361 45.1591 272.361 41.8591V34.3113H267.172V29.2182H272.361V22.6727H277.877V29.2182H287.48V34.3113H277.877V41.3273C277.877 42.9773 278.3 44.1773 279.144 44.9273C280.002 45.6773 281.405 46.0523 283.353 46.0523C283.98 46.0523 284.647 46.0182 285.355 45.95C286.077 45.8682 286.894 45.7659 287.807 45.6432L288.297 50.8182C287.398 50.9818 286.52 51.1045 285.662 51.1864C284.817 51.2682 283.911 51.3091 282.944 51.3091ZM304.969 50.9L302.783 34.5568H302.537L300.351 50.9H293.119L291.689 29.2182H297.062L297.838 45.7455H298.206L300.678 29.2182H304.642L307.114 45.7455H307.481L308.81 29.2182H314.04L311.997 50.9H304.969ZM331.365 51.1045L331.017 46.3182H330.527C330.323 47.9818 329.656 49.2295 328.525 50.0614C327.409 50.8932 325.91 51.3091 324.03 51.3091C321.728 51.3091 319.938 50.7432 318.657 49.6113C317.377 48.4796 316.737 46.8705 316.737 44.7841C316.737 42.3568 317.574 40.4955 319.249 39.2C320.925 37.9045 323.301 37.2568 326.38 37.2568C327.279 37.2568 328.075 37.2909 328.77 37.3591C329.478 37.4273 330.16 37.5363 330.813 37.6864V37.625C330.813 36.4659 330.317 35.6204 329.322 35.0887C328.341 34.5432 326.877 34.2432 324.929 34.1887L319.393 34.0455L319.801 29.0136L324.521 29.075C328.443 29.1296 331.358 29.9068 333.265 31.4069C335.172 32.8932 336.125 35.0682 336.125 37.9318V45.95L339.129 46.4V50.9L331.365 51.1045ZM330.813 42.2477C330.024 42.0841 329.308 41.9886 328.668 41.9614C328.028 41.9341 327.354 41.9204 326.646 41.9204C323.785 41.9204 322.355 42.7386 322.355 44.375C322.355 45.8887 323.37 46.6455 325.399 46.6455C326.57 46.6455 327.551 46.4341 328.341 46.0113C329.145 45.575 329.751 45.0227 330.16 44.3545C330.568 43.6727 330.786 42.9704 330.813 42.2477ZM351.019 41.5727V46.1545H356.086V50.9H340.927V46.1545H345.503V33.9636H341.744V29.2182H350.202L350.835 34.1069H351.612C351.83 30.575 353.676 28.8091 357.148 28.8091C359.205 28.8091 360.778 29.5659 361.868 31.0796C362.972 32.5931 363.523 34.775 363.523 37.625H358.007C358.007 36.3432 357.768 35.4227 357.292 34.8636C356.829 34.3045 356.079 34.025 355.044 34.025C353.696 34.025 352.688 34.6796 352.021 35.9887C351.353 37.2978 351.019 39.1591 351.019 41.5727ZM378.131 51.3091C374.385 51.3091 371.491 50.3409 369.448 48.4045C367.405 46.4545 366.383 43.6591 366.383 40.0182C366.383 36.4727 367.248 33.7182 368.978 31.7545C370.722 29.7909 373.173 28.8091 376.333 28.8091C379.425 28.8091 381.815 29.7159 383.504 31.5295C385.193 33.3432 386.038 35.9818 386.038 39.4455C386.038 40.4273 385.997 41.3614 385.915 42.2477H372.165C373.01 44.7977 375.161 46.0727 378.621 46.0727C379.602 46.0727 380.569 46.025 381.522 45.9295C382.476 45.8205 383.449 45.6773 384.444 45.5L384.975 50.7364C383.586 50.9818 382.319 51.1386 381.175 51.2069C380.031 51.275 379.016 51.3091 378.131 51.3091ZM371.9 38.4022H380.603C380.603 36.9432 380.228 35.825 379.48 35.0477C378.743 34.2705 377.709 33.8818 376.374 33.8818C375.121 33.8818 374.106 34.2773 373.33 35.0682C372.567 35.8455 372.09 36.9568 371.9 38.4022Z" fill="black"/>
</svg>
