<svg width="444" height="250" viewBox="0 0 444 250" fill="none" xmlns="http://www.w3.org/2000/svg">
<rect width="444" height="250" fill="#404040"/>
<path d="M170.062 132L166.078 121.453H165.883V132H163.852V118.133H166.469L170.453 128.68H170.648V118.133H172.68V132H170.062ZM179.984 132.195C178.552 132.195 177.439 131.727 176.645 130.789C175.85 129.852 175.453 128.53 175.453 126.824C175.453 125.112 175.85 123.79 176.645 122.859C177.439 121.922 178.552 121.453 179.984 121.453C181.423 121.453 182.536 121.922 183.324 122.859C184.118 123.79 184.516 125.112 184.516 126.824C184.516 128.53 184.118 129.852 183.324 130.789C182.536 131.727 181.423 132.195 179.984 132.195ZM179.984 130.34C180.746 130.34 181.332 130.034 181.742 129.422C182.159 128.81 182.367 127.944 182.367 126.824C182.367 125.698 182.159 124.832 181.742 124.227C181.332 123.615 180.746 123.309 179.984 123.309C179.223 123.309 178.633 123.615 178.217 124.227C177.807 124.832 177.602 125.698 177.602 126.824C177.602 127.944 177.807 128.81 178.217 129.422C178.633 130.034 179.223 130.34 179.984 130.34ZM204.418 132.195C202.654 132.195 201.29 131.733 200.326 130.809C199.369 129.878 198.891 128.543 198.891 126.805C198.891 125.112 199.343 123.797 200.248 122.859C201.16 121.922 202.458 121.453 204.145 121.453C205.154 121.453 206.016 121.642 206.732 122.02C207.455 122.391 207.969 122.918 208.275 123.602L206.684 124.803C206.391 124.327 206.016 123.96 205.561 123.699C205.105 123.439 204.607 123.309 204.066 123.309C203.09 123.309 202.331 123.605 201.791 124.197C201.251 124.783 200.98 125.62 200.98 126.707C200.98 127.885 201.296 128.787 201.928 129.412C202.566 130.031 203.474 130.34 204.652 130.34C205.134 130.34 205.616 130.317 206.098 130.271C206.579 130.226 207.048 130.164 207.504 130.086L207.738 131.902C207.204 132.02 206.651 132.098 206.078 132.137C205.512 132.176 204.958 132.195 204.418 132.195ZM215.141 132.195C213.708 132.195 212.595 131.727 211.801 130.789C211.007 129.852 210.609 128.53 210.609 126.824C210.609 125.112 211.007 123.79 211.801 122.859C212.595 121.922 213.708 121.453 215.141 121.453C216.579 121.453 217.693 121.922 218.48 122.859C219.275 123.79 219.672 125.112 219.672 126.824C219.672 128.53 219.275 129.852 218.48 130.789C217.693 131.727 216.579 132.195 215.141 132.195ZM215.141 130.34C215.902 130.34 216.488 130.034 216.898 129.422C217.315 128.81 217.523 127.944 217.523 126.824C217.523 125.698 217.315 124.832 216.898 124.227C216.488 123.615 215.902 123.309 215.141 123.309C214.379 123.309 213.79 123.615 213.373 124.227C212.963 124.832 212.758 125.698 212.758 126.824C212.758 127.944 212.963 128.81 213.373 129.422C213.79 130.034 214.379 130.34 215.141 130.34ZM229.008 132V125.262C229.008 124.637 228.845 124.155 228.52 123.816C228.194 123.478 227.738 123.309 227.152 123.309C225.525 123.309 224.711 124.266 224.711 126.18V132H222.641V121.648H224.516L224.682 123.523H224.906C225.023 122.143 225.935 121.453 227.641 121.453C228.734 121.453 229.581 121.785 230.18 122.449C230.779 123.113 231.078 124.051 231.078 125.262V132H229.008ZM240.453 132.195C238.884 132.195 237.748 131.87 237.045 131.219C236.348 130.568 236 129.526 236 128.094V123.465H233.402V121.648H236V118.523H238.07V121.648H242.777V123.465H238.07V127.996C238.07 128.816 238.269 129.412 238.666 129.783C239.07 130.154 239.73 130.34 240.648 130.34C240.974 130.34 241.319 130.324 241.684 130.291C242.048 130.252 242.465 130.203 242.934 130.145L243.168 131.961C242.712 132.039 242.266 132.098 241.83 132.137C241.4 132.176 240.941 132.195 240.453 132.195ZM251.195 132.195C249.431 132.195 248.067 131.733 247.104 130.809C246.146 129.878 245.668 128.543 245.668 126.805C245.668 125.112 246.075 123.797 246.889 122.859C247.702 121.922 248.852 121.453 250.336 121.453C251.736 121.453 252.816 121.876 253.578 122.723C254.346 123.569 254.73 124.799 254.73 126.414C254.73 126.889 254.711 127.332 254.672 127.742H247.68C247.862 128.608 248.272 129.266 248.91 129.715C249.548 130.158 250.388 130.379 251.43 130.379C251.859 130.379 252.283 130.356 252.699 130.311C253.116 130.258 253.539 130.19 253.969 130.105L254.223 131.922C253.611 132.039 253.051 132.114 252.543 132.146C252.035 132.179 251.586 132.195 251.195 132.195ZM247.602 126.16H252.855C252.855 125.229 252.634 124.516 252.191 124.021C251.749 123.52 251.137 123.27 250.355 123.27C249.555 123.27 248.917 123.52 248.441 124.021C247.966 124.523 247.686 125.236 247.602 126.16ZM264.164 132V125.262C264.164 124.637 264.001 124.155 263.676 123.816C263.35 123.478 262.895 123.309 262.309 123.309C260.681 123.309 259.867 124.266 259.867 126.18V132H257.797V121.648H259.672L259.838 123.523H260.062C260.18 122.143 261.091 121.453 262.797 121.453C263.891 121.453 264.737 121.785 265.336 122.449C265.935 123.113 266.234 124.051 266.234 125.262V132H264.164ZM275.609 132.195C274.04 132.195 272.904 131.87 272.201 131.219C271.505 130.568 271.156 129.526 271.156 128.094V123.465H268.559V121.648H271.156V118.523H273.227V121.648H277.934V123.465H273.227V127.996C273.227 128.816 273.425 129.412 273.822 129.783C274.226 130.154 274.887 130.34 275.805 130.34C276.13 130.34 276.475 130.324 276.84 130.291C277.204 130.252 277.621 130.203 278.09 130.145L278.324 131.961C277.868 132.039 277.423 132.098 276.986 132.137C276.557 132.176 276.098 132.195 275.609 132.195Z" fill="white"/>
</svg>
