<svg width="137" height="18" viewBox="0 0 137 18" fill="none" xmlns="http://www.w3.org/2000/svg">
    <g>
        <path d="M18.0002 13.5L22.5002 9L18.0002 4.5L13.5002 9V0H22.5002L27.0002 4.5V13.5L22.5002 18H13.5002L9.00018 13.5L4.5 18H0V13.5L4.50018 9L0.000175781 4.5V0H4.50018L18.0002 13.5Z" fill="var(--ui-primary)"/>
        <path d="M36.3236 15L39.6058 10.5787L36.3236 6.05625H39.0489L40.7026 8.8575L42.3564 6.05625H45.0817L41.7573 10.5112L45.0817 15H42.3564L40.6689 12.1987L39.0489 15H36.3236ZM52.1608 15.1688C49.9079 15.1688 48.9798 13.9959 48.9798 11.2706V4.44469H46.4486V2.34375H51.2579V11.1862C51.2579 12.3084 51.5026 12.7894 52.8358 12.7894C53.3673 12.7894 53.9326 12.6881 54.7089 12.4687L54.9704 14.8144C54.0086 15.0675 53.1733 15.1688 52.1608 15.1688ZM60.2608 15.1688C58.8939 15.1688 57.8561 15.0844 57.0629 14.9156L57.3329 12.7303C58.7504 12.9075 59.7123 13.0003 60.2608 13.0003C61.7879 13.0003 62.4376 12.8062 62.4376 12.3422C62.4376 12.0722 62.2773 11.9287 61.9061 11.8191L58.9951 10.9753C57.797 10.6294 57.1979 9.94594 57.1979 8.73937C57.1979 6.81562 58.8011 5.8875 62.1001 5.8875C62.8595 5.8875 63.6864 5.94656 64.6061 6.05625L64.3614 8.17406C63.332 8.08969 62.5811 8.05594 62.0495 8.05594C60.2861 8.05594 59.5351 8.24156 59.5351 8.68875C59.5351 8.97562 59.687 9.10219 60.0414 9.20344L62.5473 9.89531C64.0829 10.3172 64.8423 11.085 64.8423 12.3506C64.8423 14.2491 63.3489 15.1688 60.2608 15.1688ZM69.1623 15V9.79406H66.4455V7.83656H69.1623V6.81562C69.1623 3.71062 70.6473 2.175 73.6426 2.175C74.3683 2.175 74.9673 2.22562 75.6423 2.34375L75.423 4.46156C74.672 4.37719 74.1236 4.34344 73.592 4.34344C72.1492 4.34344 71.4405 5.12812 71.4405 6.73125V7.83656H75.0011V9.79406H71.4405V15H69.1623ZM83.1011 15.1688C80.0129 15.1688 78.7304 13.9959 78.7304 11.2706V8.15719H76.5873V6.05625H78.7304V3.35625H81.0086V6.05625H84.9742V8.15719H81.0086V11.0512C81.0086 12.4181 81.6583 13.0003 83.2698 13.0003C83.7845 13.0003 84.3498 12.9328 85.1092 12.8316L85.3117 14.9662C84.5692 15.1013 83.9026 15.1688 83.1011 15.1688ZM91.3276 5.98875L88.5855 1.26375H91.4036L93.4033 5.98875H91.3276ZM100.761 15.1688C99.3939 15.1688 98.3561 15.0844 97.563 14.9156L97.833 12.7303C99.2505 12.9075 100.212 13.0003 100.761 13.0003C102.288 13.0003 102.938 12.8062 102.938 12.3422C102.938 12.0722 102.777 11.9287 102.406 11.8191L99.4951 10.9753C98.297 10.6294 97.698 9.94594 97.698 8.73937C97.698 6.81562 99.3011 5.8875 102.6 5.8875C103.36 5.8875 104.186 5.94656 105.106 6.05625L104.861 8.17406C103.832 8.08969 103.081 8.05594 102.55 8.05594C100.786 8.05594 100.035 8.24156 100.035 8.68875C100.035 8.97562 100.187 9.10219 100.541 9.20344L103.047 9.89531C104.583 10.3172 105.342 11.085 105.342 12.3506C105.342 14.2491 103.849 15.1688 100.761 15.1688ZM122.749 15.1688C119.492 15.1688 117.644 13.515 117.644 10.5112C117.644 7.59187 119.323 5.8875 122.327 5.8875C124.175 5.8875 125.55 6.63844 126.107 7.95469L124.453 9.27094C123.955 8.49469 123.171 8.05594 122.26 8.05594C120.825 8.05594 119.981 8.90812 119.981 10.4269C119.981 12.1059 121.053 13.0003 122.951 13.0003C123.761 13.0003 124.571 12.9159 125.339 12.7809L125.575 14.9156C124.664 15.1181 123.669 15.1688 122.749 15.1688ZM130.36 15L127.297 6.05625H129.625L131.752 12.9919H131.904L134.03 6.05625H136.359L133.296 15H130.36Z" fill="var(--ui-text)"/>
    </g>
</svg>