<svg width="1000" height="98" viewBox="0 0 1000 98" fill="none" xmlns="http://www.w3.org/2000/svg">
<rect width="238" height="50" transform="translate(48 24)" fill="#2B7FFF"/>
<path d="M92.8438 55.1562C89.3073 55.1562 87.5391 53.25 87.5391 49.4375C87.5391 47.6302 87.9844 46.2318 88.875 45.2422C89.7656 44.2474 91.026 43.75 92.6562 43.75C93.3906 43.75 94.0417 43.8698 94.6094 44.1094C95.1771 44.3438 95.6068 44.6797 95.8984 45.1172L94.7422 46.6328C94.2474 46.0234 93.5573 45.7188 92.6719 45.7188C91.776 45.7188 91.0573 46.0365 90.5156 46.6719C89.9792 47.3021 89.7109 48.1979 89.7109 49.3594C89.7109 51.9115 90.8438 53.1875 93.1094 53.1875C93.8646 53.1875 94.6094 53.0312 95.3438 52.7188L95.7031 54.625C94.7969 54.9792 93.8438 55.1562 92.8438 55.1562ZM97.6328 55V46.7188H101.938C102.828 46.7188 103.518 46.9089 104.008 47.2891C104.497 47.6693 104.742 48.2083 104.742 48.9062C104.742 49.4271 104.521 49.8333 104.078 50.125C103.635 50.4115 103.013 50.5599 102.211 50.5703V50.8359H102.25C103.141 50.8359 103.831 51.0078 104.32 51.3516C104.81 51.6953 105.055 52.1823 105.055 52.8125C105.055 53.5052 104.826 54.0443 104.367 54.4297C103.909 54.8099 103.26 55 102.422 55H97.6328ZM99.75 52.9922H101.867C102.549 52.9922 102.891 52.7266 102.891 52.1953C102.891 51.7057 102.542 51.4609 101.844 51.4609H99.75V52.9922ZM99.75 49.9453H101.812C102.323 49.9453 102.578 49.7422 102.578 49.3359C102.578 48.9297 102.318 48.7266 101.797 48.7266H99.75V49.9453ZM109.477 51.4531C108.633 51.4531 107.979 51.263 107.516 50.8828C107.057 50.5026 106.828 49.9661 106.828 49.2734C106.828 48.4609 107.112 47.8333 107.68 47.3906C108.253 46.9427 109.06 46.7188 110.102 46.7188H113.906V55H111.789V52.4297H111.484C110.859 52.4297 110.432 52.4922 110.203 52.6172C109.974 52.7422 109.815 52.9661 109.727 53.2891L109.617 53.6562C109.466 54.2031 109.188 54.5703 108.781 54.7578C108.375 54.9453 107.805 55.0391 107.07 55.0391H106.602V53.0703H106.992C107.206 53.0703 107.378 53.0312 107.508 52.9531C107.643 52.875 107.755 52.7344 107.844 52.5312L107.977 52.2656C108.081 52.0208 108.292 51.862 108.609 51.7891C108.932 51.7161 109.307 51.6797 109.734 51.6797V51.4531H109.477ZM111.789 50.4609V48.6875H110.164C109.383 48.6875 108.992 48.987 108.992 49.5859C108.992 50.1693 109.383 50.4609 110.164 50.4609H111.789ZM119.469 55.1562C118.807 55.1562 118.159 55.0885 117.523 54.9531C116.893 54.8177 116.349 54.5469 115.891 54.1406L116.883 52.5547C117.253 52.7786 117.672 52.9349 118.141 53.0234C118.609 53.112 119.031 53.1562 119.406 53.1562C119.958 53.1562 120.393 53.0911 120.711 52.9609C121.029 52.8255 121.188 52.6458 121.188 52.4219C121.188 52.1667 121 51.9766 120.625 51.8516C120.255 51.7266 119.604 51.6641 118.672 51.6641H118.344L118.258 49.7266H118.695C119.326 49.7266 119.794 49.7057 120.102 49.6641C120.409 49.6172 120.612 49.5521 120.711 49.4688C120.815 49.3854 120.867 49.2839 120.867 49.1641C120.867 48.9609 120.685 48.8099 120.32 48.7109C119.956 48.612 119.495 48.5625 118.938 48.5625C118.573 48.5625 118.245 48.5781 117.953 48.6094C117.661 48.6458 117.284 48.6875 116.82 48.7344L116.555 46.7656C116.961 46.7135 117.344 46.6667 117.703 46.625C118.068 46.5833 118.536 46.5625 119.109 46.5625C120.307 46.5625 121.26 46.7344 121.969 47.0781C122.677 47.4167 123.031 47.9557 123.031 48.6953C123.031 48.9714 122.948 49.2448 122.781 49.5156C122.615 49.7812 122.367 50.0078 122.039 50.1953C121.716 50.3776 121.312 50.4844 120.828 50.5156V50.7344C121.672 50.7865 122.302 50.987 122.719 51.3359C123.141 51.6849 123.352 52.1302 123.352 52.6719C123.352 53.4219 123 54.0234 122.297 54.4766C121.594 54.9297 120.651 55.1562 119.469 55.1562ZM130.711 55.0781L130.578 53.25H130.391C130.312 53.8854 130.057 54.362 129.625 54.6797C129.198 54.9974 128.625 55.1562 127.906 55.1562C127.026 55.1562 126.341 54.9401 125.852 54.5078C125.362 54.0755 125.117 53.4609 125.117 52.6641C125.117 51.737 125.438 51.026 126.078 50.5312C126.719 50.0365 127.628 49.7891 128.805 49.7891C129.148 49.7891 129.453 49.8021 129.719 49.8281C129.99 49.8542 130.25 49.8958 130.5 49.9531V49.9297C130.5 49.487 130.31 49.1641 129.93 48.9609C129.555 48.7526 128.995 48.638 128.25 48.6172L126.133 48.5625L126.289 46.6406L128.094 46.6641C129.594 46.6849 130.708 46.9818 131.438 47.5547C132.167 48.1224 132.531 48.9531 132.531 50.0469V53.1094L133.68 53.2812V55L130.711 55.0781ZM130.5 51.6953C130.198 51.6328 129.924 51.5964 129.68 51.5859C129.435 51.5755 129.177 51.5703 128.906 51.5703C127.812 51.5703 127.266 51.8828 127.266 52.5078C127.266 53.0859 127.654 53.375 128.43 53.375C128.878 53.375 129.253 53.2943 129.555 53.1328C129.862 52.9661 130.094 52.7552 130.25 52.5C130.406 52.2396 130.49 51.9714 130.5 51.6953ZM137.508 55V48.6875H134.445V46.7188H142.68V48.6875H139.617V55H137.508ZM144.586 55V46.7188H146.703V49.1641H149.062C150 49.1641 150.724 49.4193 151.234 49.9297C151.75 50.4349 152.008 51.1536 152.008 52.0859C152.008 53.013 151.75 53.7318 151.234 54.2422C150.724 54.7474 150 55 149.062 55H144.586ZM146.703 53.0312H148.727C149.471 53.0312 149.844 52.7161 149.844 52.0859C149.844 51.4505 149.471 51.1328 148.727 51.1328H146.703V53.0312ZM158.281 55.1562C156.776 55.1562 155.612 54.7865 154.789 54.0469C153.966 53.3021 153.555 52.2344 153.555 50.8438C153.555 49.4896 153.93 48.4375 154.68 47.6875C155.43 46.9375 156.5 46.5625 157.891 46.5625C158.745 46.5625 159.477 46.7292 160.086 47.0625C160.701 47.3958 161.135 47.8672 161.391 48.4766L159.859 49.6953C159.38 48.9453 158.703 48.5703 157.828 48.5703C157.167 48.5703 156.648 48.7604 156.273 49.1406C155.904 49.5208 155.719 50.0625 155.719 50.7656C155.719 51.5417 155.956 52.1328 156.43 52.5391C156.909 52.9453 157.589 53.1484 158.469 53.1484C158.844 53.1484 159.216 53.1302 159.586 53.0938C159.961 53.0573 160.326 53.0078 160.68 52.9453L160.898 54.9219C160.477 55.0156 160.042 55.0781 159.594 55.1094C159.146 55.1406 158.708 55.1562 158.281 55.1562ZM165.727 51.4531C164.883 51.4531 164.229 51.263 163.766 50.8828C163.307 50.5026 163.078 49.9661 163.078 49.2734C163.078 48.4609 163.362 47.8333 163.93 47.3906C164.503 46.9427 165.31 46.7188 166.352 46.7188H170.156V55H168.039V52.4297H167.734C167.109 52.4297 166.682 52.4922 166.453 52.6172C166.224 52.7422 166.065 52.9661 165.977 53.2891L165.867 53.6562C165.716 54.2031 165.438 54.5703 165.031 54.7578C164.625 54.9453 164.055 55.0391 163.32 55.0391H162.852V53.0703H163.242C163.456 53.0703 163.628 53.0312 163.758 52.9531C163.893 52.875 164.005 52.7344 164.094 52.5312L164.227 52.2656C164.331 52.0208 164.542 51.862 164.859 51.7891C165.182 51.7161 165.557 51.6797 165.984 51.6797V51.4531H165.727ZM168.039 50.4609V48.6875H166.414C165.633 48.6875 165.242 48.987 165.242 49.5859C165.242 50.1693 165.633 50.4609 166.414 50.4609H168.039ZM186.406 55.1562C184.901 55.1562 183.737 54.7865 182.914 54.0469C182.091 53.3021 181.68 52.2344 181.68 50.8438C181.68 49.4896 182.055 48.4375 182.805 47.6875C183.555 46.9375 184.625 46.5625 186.016 46.5625C186.87 46.5625 187.602 46.7292 188.211 47.0625C188.826 47.3958 189.26 47.8672 189.516 48.4766L187.984 49.6953C187.505 48.9453 186.828 48.5703 185.953 48.5703C185.292 48.5703 184.773 48.7604 184.398 49.1406C184.029 49.5208 183.844 50.0625 183.844 50.7656C183.844 51.5417 184.081 52.1328 184.555 52.5391C185.034 52.9453 185.714 53.1484 186.594 53.1484C186.969 53.1484 187.341 53.1302 187.711 53.0938C188.086 53.0573 188.451 53.0078 188.805 52.9453L189.023 54.9219C188.602 55.0156 188.167 55.0781 187.719 55.1094C187.271 55.1406 186.833 55.1562 186.406 55.1562ZM194.812 55.1562C193.62 55.1562 192.695 54.7812 192.039 54.0312C191.383 53.2812 191.055 52.224 191.055 50.8594C191.055 49.4896 191.383 48.4323 192.039 47.6875C192.695 46.9375 193.62 46.5625 194.812 46.5625C196.005 46.5625 196.93 46.9375 197.586 47.6875C198.242 48.4323 198.57 49.4896 198.57 50.8594C198.57 52.224 198.242 53.2812 197.586 54.0312C196.93 54.7812 196.005 55.1562 194.812 55.1562ZM194.812 53.1484C195.323 53.1484 195.716 52.9505 195.992 52.5547C196.268 52.1536 196.406 51.5885 196.406 50.8594C196.406 50.125 196.268 49.5599 195.992 49.1641C195.716 48.7682 195.323 48.5703 194.812 48.5703C194.307 48.5703 193.914 48.7682 193.633 49.1641C193.357 49.5599 193.219 50.125 193.219 50.8594C193.219 51.5885 193.357 52.1536 193.633 52.5547C193.914 52.9505 194.307 53.1484 194.812 53.1484ZM209.742 55V46.7188H212.688L213.5 50.9609H213.625L214.438 46.7188H217.383V55H215.398V48.6875H215.133L214.266 53.2812H212.859L211.992 48.6875H211.727V55H209.742ZM224.328 55V51.8281H221.547V55H219.43V46.7188H221.547V49.8828H224.328V46.7188H226.445V55H224.328ZM232.312 55.1562C231.12 55.1562 230.195 54.7812 229.539 54.0312C228.883 53.2812 228.555 52.224 228.555 50.8594C228.555 49.4896 228.883 48.4323 229.539 47.6875C230.195 46.9375 231.12 46.5625 232.312 46.5625C233.505 46.5625 234.43 46.9375 235.086 47.6875C235.742 48.4323 236.07 49.4896 236.07 50.8594C236.07 52.224 235.742 53.2812 235.086 54.0312C234.43 54.7812 233.505 55.1562 232.312 55.1562ZM232.312 53.1484C232.823 53.1484 233.216 52.9505 233.492 52.5547C233.768 52.1536 233.906 51.5885 233.906 50.8594C233.906 50.125 233.768 49.5599 233.492 49.1641C233.216 48.7682 232.823 48.5703 232.312 48.5703C231.807 48.5703 231.414 48.7682 231.133 49.1641C230.857 49.5599 230.719 50.125 230.719 50.8594C230.719 51.5885 230.857 52.1536 231.133 52.5547C231.414 52.9505 231.807 53.1484 232.312 53.1484ZM238.18 55V46.7188H240.297V51.5625H240.516L243.039 46.7188H245.195V55H243.078V50.1562H242.859L240.336 55H238.18ZM241.688 45.3281C240.62 45.3281 239.836 45.0938 239.336 44.625C238.836 44.151 238.586 43.4349 238.586 42.4766H240.672C240.672 42.9401 240.75 43.2786 240.906 43.4922C241.062 43.7057 241.323 43.8125 241.688 43.8125C242.062 43.8125 242.326 43.7057 242.477 43.4922C242.628 43.2734 242.703 42.9349 242.703 42.4766H244.789C244.789 43.4401 244.536 44.1562 244.031 44.625C243.526 45.0938 242.745 45.3281 241.688 45.3281Z" fill="white"/>
</svg>
